<?xml version="1.0" encoding="UTF-8" standalone="no"?><svg xmlns="http://www.w3.org/2000/svg" xmlns:xlink="http://www.w3.org/1999/xlink" contentScriptType="application/ecmascript" contentStyleType="text/css" height="531px" preserveAspectRatio="none" style="width:974px;height:531px;background:#FFFFFF;" version="1.1" viewBox="0 0 974 531" width="974px" zoomAndPan="magnify"><defs><filter height="300%" id="fhr2qyulbet8" width="300%" x="-1" y="-1"><feGaussianBlur result="blurOut" stdDeviation="2.0"/><feColorMatrix in="blurOut" result="blurOut2" type="matrix" values="0 0 0 0 0 0 0 0 0 0 0 0 0 0 0 0 0 0 .4 0"/><feOffset dx="4.0" dy="4.0" in="blurOut2" result="blurOut3"/><feBlend in="SourceGraphic" in2="blurOut3" mode="normal"/></filter></defs><g><rect fill="#FEFECE" filter="url(#fhr2qyulbet8)" height="35.0938" style="stroke:#A80036;stroke-width:1.5;" width="63" x="536" y="7"/><text fill="#000000" font-family="sans-serif" font-size="12" lengthAdjust="spacing" textLength="49" x="543" y="21.457">meninas</text><line style="stroke:#A80036;stroke-width:1.5;" x1="537" x2="598" y1="26.0938" y2="26.0938"/><rect fill="#FEFECE" filter="url(#fhr2qyulbet8)" height="35.0938" style="stroke:#A80036;stroke-width:1.5;" width="67" x="893" y="482"/><text fill="#000000" font-family="sans-serif" font-size="12" lengthAdjust="spacing" textLength="53" x="900" y="496.457">:Observer</text><line style="stroke:#A80036;stroke-width:1.5;" x1="894" x2="959" y1="501.0938" y2="501.0938"/><rect fill="#FEFECE" filter="url(#fhr2qyulbet8)" height="35.0938" style="stroke:#A80036;stroke-width:1.5;" width="81" x="189" y="102"/><text fill="#000000" font-family="sans-serif" font-size="12" lengthAdjust="spacing" textLength="67" x="196" y="116.457">:Foreground</text><line style="stroke:#A80036;stroke-width:1.5;" x1="190" x2="269" y1="121.0938" y2="121.0938"/><rect fill="#FEFECE" filter="url(#fhr2qyulbet8)" height="35.0938" style="stroke:#A80036;stroke-width:1.5;" width="83" x="526" y="102"/><text fill="#000000" font-family="sans-serif" font-size="12" lengthAdjust="spacing" textLength="69" x="533" y="116.457">:Background</text><line style="stroke:#A80036;stroke-width:1.5;" x1="527" x2="608" y1="121.0938" y2="121.0938"/><rect fill="#FEFECE" filter="url(#fhr2qyulbet8)" height="35.0938" style="stroke:#A80036;stroke-width:1.5;" width="77" x="725" y="102"/><text fill="#000000" font-family="sans-serif" font-size="12" lengthAdjust="spacing" textLength="63" x="732" y="116.457">:ThirdPlane</text><line style="stroke:#A80036;stroke-width:1.5;" x1="726" x2="801" y1="121.0938" y2="121.0938"/><rect fill="#FEFECE" filter="url(#fhr2qyulbet8)" height="35.0938" style="stroke:#A80036;stroke-width:1.5;" width="67" x="7" y="197"/><text fill="#000000" font-family="sans-serif" font-size="12" lengthAdjust="spacing" textLength="53" x="14" y="211.457">margarita</text><line style="stroke:#A80036;stroke-width:1.5;" x1="8" x2="73" y1="216.0938" y2="216.0938"/><rect fill="#FEFECE" filter="url(#fhr2qyulbet8)" height="35.0938" style="stroke:#A80036;stroke-width:1.5;" width="57" x="109" y="197"/><text fill="#000000" font-family="sans-serif" font-size="12" lengthAdjust="spacing" textLength="43" x="116" y="211.457">:Menina</text><line style="stroke:#A80036;stroke-width:1.5;" x1="110" x2="165" y1="216.0938" y2="216.0938"/><rect fill="#FEFECE" filter="url(#fhr2qyulbet8)" height="35.0938" style="stroke:#A80036;stroke-width:1.5;" width="57" x="201" y="197"/><text fill="#000000" font-family="sans-serif" font-size="12" lengthAdjust="spacing" textLength="43" x="208" y="211.457">:Menina</text><line style="stroke:#A80036;stroke-width:1.5;" x1="202" x2="257" y1="216.0938" y2="216.0938"/><rect fill="#FEFECE" filter="url(#fhr2qyulbet8)" height="35.0938" style="stroke:#A80036;stroke-width:1.5;" width="59" x="397" y="292"/><text fill="#000000" font-family="sans-serif" font-size="12" lengthAdjust="spacing" textLength="45" x="404" y="306.457">:Canvas</text><line style="stroke:#A80036;stroke-width:1.5;" x1="398" x2="455" y1="311.0938" y2="311.0938"/><rect fill="#FEFECE" filter="url(#fhr2qyulbet8)" height="35.0938" style="stroke:#A80036;stroke-width:1.5;" width="67" x="436" y="197"/><text fill="#000000" font-family="sans-serif" font-size="12" lengthAdjust="spacing" textLength="53" x="443" y="211.457">velazquez</text><line style="stroke:#A80036;stroke-width:1.5;" x1="437" x2="502" y1="216.0938" y2="216.0938"/><rect fill="#FEFECE" filter="url(#fhr2qyulbet8)" height="35.0938" style="stroke:#A80036;stroke-width:1.5;" width="58" x="631.5" y="197"/><text fill="#000000" font-family="sans-serif" font-size="12" lengthAdjust="spacing" textLength="44" x="638.5" y="211.457">:Servant</text><line style="stroke:#A80036;stroke-width:1.5;" x1="632.5" x2="688.5" y1="216.0938" y2="216.0938"/><rect fill="#FEFECE" filter="url(#fhr2qyulbet8)" height="35.0938" style="stroke:#A80036;stroke-width:1.5;" width="58" x="538.5" y="197"/><text fill="#000000" font-family="sans-serif" font-size="12" lengthAdjust="spacing" textLength="44" x="545.5" y="211.457">:Servant</text><line style="stroke:#A80036;stroke-width:1.5;" x1="539.5" x2="595.5" y1="216.0938" y2="216.0938"/><rect fill="#FEFECE" filter="url(#fhr2qyulbet8)" height="35.0938" style="stroke:#A80036;stroke-width:1.5;" width="47" x="777" y="387"/><text fill="#000000" font-family="sans-serif" font-size="12" lengthAdjust="spacing" textLength="33" x="784" y="401.457">mirror</text><line style="stroke:#A80036;stroke-width:1.5;" x1="778" x2="823" y1="406.0938" y2="406.0938"/><rect fill="#FEFECE" filter="url(#fhr2qyulbet8)" height="35.0938" style="stroke:#A80036;stroke-width:1.5;" width="54" x="654.5" y="482"/><text fill="#000000" font-family="sans-serif" font-size="12" lengthAdjust="spacing" textLength="40" x="661.5" y="496.457">felipeIV</text><line style="stroke:#A80036;stroke-width:1.5;" x1="655.5" x2="707.5" y1="501.0938" y2="501.0938"/><rect fill="#FEFECE" filter="url(#fhr2qyulbet8)" height="35.0938" style="stroke:#A80036;stroke-width:1.5;" width="114" x="743.5" y="482"/><text fill="#000000" font-family="sans-serif" font-size="12" lengthAdjust="spacing" textLength="100" x="750.5" y="496.457">marianaDeAustria</text><line style="stroke:#A80036;stroke-width:1.5;" x1="744.5" x2="856.5" y1="501.0938" y2="501.0938"/><rect fill="#FEFECE" filter="url(#fhr2qyulbet8)" height="35.0938" style="stroke:#A80036;stroke-width:1.5;" width="78" x="724.5" y="197"/><text fill="#000000" font-family="sans-serif" font-size="12" lengthAdjust="spacing" textLength="64" x="731.5" y="211.457">:Personage</text><line style="stroke:#A80036;stroke-width:1.5;" x1="725.5" x2="801.5" y1="216.0938" y2="216.0938"/><!--MD5=[78f9abc3e565a0a575ed613523be21a6]
link meninas to Foreground--><path codeLine="18" d="M524.128,37.4264 C524.128,37.4264 348.87,85.66 282.64,103.88 " fill="none" id="meninas-Foreground" style="stroke:#A80036;stroke-width:1.0;"/><polygon fill="#A80036" points="270.03,107.35,279.7678,108.8251,274.8517,106.0265,277.6502,101.1104,270.03,107.35" style="stroke:#A80036;stroke-width:1.0;"/><line style="stroke:#A80036;stroke-width:1.0;" x1="274.8517" x2="282.565" y1="106.0265" y2="103.9"/><polygon fill="#A80036" points="535.7,34.25,528.8552,31.9809,524.128,37.4264,530.9728,39.6955,535.7,34.25" style="stroke:#A80036;stroke-width:1.0;"/><!--MD5=[78f1e47945a7c2a9b4c856b4c2c7e13d]
link meninas to Background--><path codeLine="19" d="M567.5,54.13 C567.5,54.13 567.5,77.95 567.5,88.65 " fill="none" id="meninas-Background" style="stroke:#A80036;stroke-width:1.0;"/><polygon fill="#A80036" points="567.5,101.7,571.5,92.7,567.5,96.7,563.5,92.7,567.5,101.7" style="stroke:#A80036;stroke-width:1.0;"/><line style="stroke:#A80036;stroke-width:1.0;" x1="567.5" x2="567.5" y1="96.7" y2="88.7"/><polygon fill="#A80036" points="567.5,42.13,563.5,48.13,567.5,54.13,571.5,48.13,567.5,42.13" style="stroke:#A80036;stroke-width:1.0;"/><!--MD5=[76a9f34febcb64f92e9d19bc57045277]
link meninas to ThirdPlane--><path codeLine="20" d="M610.2716,45.7938 C610.2716,45.7938 684.52,81.03 716.47,96.18 " fill="none" id="meninas-ThirdPlane" style="stroke:#A80036;stroke-width:1.0;"/><polygon fill="#A80036" points="728.61,101.95,722.2008,94.4719,724.0948,99.8023,718.7644,101.6962,728.61,101.95" style="stroke:#A80036;stroke-width:1.0;"/><line style="stroke:#A80036;stroke-width:1.0;" x1="724.0948" x2="716.865" y1="99.8023" y2="96.37"/><polygon fill="#A80036" points="599.43,40.65,603.1362,46.8358,610.2716,45.7938,606.5654,39.608,599.43,40.65" style="stroke:#A80036;stroke-width:1.0;"/><!--MD5=[e3b91ee489117b8102917fcf8dd796fb]
link Foreground to margarita--><path codeLine="22" d="M184.9428,142.4279 C184.9428,142.4279 115.65,176.52 86.01,191.1 " fill="none" id="Foreground-margarita" style="stroke:#A80036;stroke-width:1.0;"/><polygon fill="#A80036" points="74.31,196.86,84.1512,196.4708,78.7953,194.6504,80.6157,189.2944,74.31,196.86" style="stroke:#A80036;stroke-width:1.0;"/><line style="stroke:#A80036;stroke-width:1.0;" x1="78.7953" x2="85.98" y1="194.6504" y2="191.12"/><polygon fill="#A80036" points="195.71,137.13,188.5604,136.1899,184.9428,142.4279,192.0924,143.368,195.71,137.13" style="stroke:#A80036;stroke-width:1.0;"/><!--MD5=[8e21e556a02186d95762f96a19377443]
link Foreground to Menina1--><path codeLine="23" d="M204.611,145.6613 C204.611,145.6613 176.17,174.4 163.59,187.13 " fill="none" id="Foreground-Menina1" style="stroke:#A80036;stroke-width:1.0;"/><polygon fill="#A80036" points="154.12,196.7,163.293,193.1145,157.6363,193.1453,157.6055,187.4885,154.12,196.7" style="stroke:#A80036;stroke-width:1.0;"/><line style="stroke:#A80036;stroke-width:1.0;" x1="157.6363" x2="163.255" y1="193.1453" y2="187.46"/><polygon fill="#A80036" points="213.05,137.13,205.9867,138.5827,204.611,145.6613,211.6743,144.2087,213.05,137.13" style="stroke:#A80036;stroke-width:1.0;"/><!--MD5=[c8569c61d7908dfc03e238889be23f98]
link Foreground to Menina2--><path codeLine="24" d="M229.5,149.13 C229.5,149.13 229.5,172.95 229.5,183.65 " fill="none" id="Foreground-Menina2" style="stroke:#A80036;stroke-width:1.0;"/><polygon fill="#A80036" points="229.5,196.7,233.5,187.7,229.5,191.7,225.5,187.7,229.5,196.7" style="stroke:#A80036;stroke-width:1.0;"/><line style="stroke:#A80036;stroke-width:1.0;" x1="229.5" x2="229.5" y1="191.7" y2="183.7"/><polygon fill="#A80036" points="229.5,137.13,225.5,143.13,229.5,149.13,233.5,143.13,229.5,137.13" style="stroke:#A80036;stroke-width:1.0;"/><!--MD5=[ed7cc29aac400a2bc4c986d91ca50029]
link Foreground to Canvas--><path codeLine="25" d="M255.6609,145.4651 C255.6609,145.4651 361.67,246.63 399.29,282.53 " fill="none" id="Foreground-Canvas" style="stroke:#A80036;stroke-width:1.0;"/><polygon fill="#A80036" points="409.06,291.85,405.311,282.7426,405.443,288.3979,399.7877,288.5298,409.06,291.85" style="stroke:#A80036;stroke-width:1.0;"/><line style="stroke:#A80036;stroke-width:1.0;" x1="405.443" x2="399.65" y1="288.3979" y2="282.88"/><polygon fill="#A80036" points="246.98,137.18,248.5587,144.2162,255.6609,145.4651,254.0821,138.4289,246.98,137.18" style="stroke:#A80036;stroke-width:1.0;"/><!--MD5=[2934a12e934a6439bc5f61572dd4827b]
link Background to velazquez--><path codeLine="27" d="M541.2672,145.3815 C541.2672,145.3815 510.38,174.71 496.89,187.51 " fill="none" id="Background-velazquez" style="stroke:#A80036;stroke-width:1.0;"/><polygon fill="#A80036" points="487.2,196.7,496.4851,193.4157,490.8303,193.2619,490.9841,187.6071,487.2,196.7" style="stroke:#A80036;stroke-width:1.0;"/><line style="stroke:#A80036;stroke-width:1.0;" x1="490.8303" x2="496.63" y1="193.2619" y2="187.755"/><polygon fill="#A80036" points="549.98,137.13,542.8731,138.3515,541.2672,145.3815,548.3741,144.16,549.98,137.13" style="stroke:#A80036;stroke-width:1.0;"/><!--MD5=[1878a0042d1290a259eba2806fd21b33]
link Background to Servant1--><path codeLine="28" d="M592.6153,145.6153 C592.6153,145.6153 621.71,174.71 634.51,187.51 " fill="none" id="Background-Servant1" style="stroke:#A80036;stroke-width:1.0;"/><polygon fill="#A80036" points="643.7,196.7,640.1645,187.5076,640.1645,193.1645,634.5076,193.1645,643.7,196.7" style="stroke:#A80036;stroke-width:1.0;"/><line style="stroke:#A80036;stroke-width:1.0;" x1="640.1645" x2="634.51" y1="193.1645" y2="187.51"/><polygon fill="#A80036" points="584.13,137.13,585.5442,144.2011,592.6153,145.6153,591.2011,138.5442,584.13,137.13" style="stroke:#A80036;stroke-width:1.0;"/><!--MD5=[d49de8217c52c59194afc885879ef123]
link Background to Servant2--><path codeLine="29" d="M567.5,149.13 C567.5,149.13 567.5,172.95 567.5,183.65 " fill="none" id="Background-Servant2" style="stroke:#A80036;stroke-width:1.0;"/><polygon fill="#A80036" points="567.5,196.7,571.5,187.7,567.5,191.7,563.5,187.7,567.5,196.7" style="stroke:#A80036;stroke-width:1.0;"/><line style="stroke:#A80036;stroke-width:1.0;" x1="567.5" x2="567.5" y1="191.7" y2="183.7"/><polygon fill="#A80036" points="567.5,137.13,563.5,143.13,567.5,149.13,571.5,143.13,567.5,137.13" style="stroke:#A80036;stroke-width:1.0;"/><!--MD5=[070fde557b8d5475a271724e62a3e662]
link ThirdPlane to mirror--><path codeLine="31" d="M789.0606,146.0115 C789.0606,146.0115 814.31,178.33 820.5,197 C840.67,257.82 823.15,333.82 810.58,374.54 " fill="none" id="ThirdPlane-mirror" style="stroke:#A80036;stroke-width:1.0;"/><polygon fill="#A80036" points="806.57,386.93,813.1448,379.5971,808.1082,382.1725,805.5328,377.1359,806.57,386.93" style="stroke:#A80036;stroke-width:1.0;"/><line style="stroke:#A80036;stroke-width:1.0;" x1="808.1082" x2="810.58" y1="382.1725" y2="374.56"/><polygon fill="#A80036" points="780.98,137.14,782.0631,144.2693,789.0606,146.0115,787.9775,138.8822,780.98,137.14" style="stroke:#A80036;stroke-width:1.0;"/><!--MD5=[f8bfe1afc8b2322391dc8f6677b65996]
link ThirdPlane to Personage--><path codeLine="32" d="M763.5,149.13 C763.5,149.13 763.5,172.95 763.5,183.65 " fill="none" id="ThirdPlane-Personage" style="stroke:#A80036;stroke-width:1.0;"/><polygon fill="#A80036" points="763.5,196.7,767.5,187.7,763.5,191.7,759.5,187.7,763.5,196.7" style="stroke:#A80036;stroke-width:1.0;"/><line style="stroke:#A80036;stroke-width:1.0;" x1="763.5" x2="763.5" y1="191.7" y2="183.7"/><polygon fill="#A80036" points="763.5,137.13,759.5,143.13,763.5,149.13,767.5,143.13,763.5,137.13" style="stroke:#A80036;stroke-width:1.0;"/><!--MD5=[0260c63671fca8de181a1eed63294c6a]
link mirror to felipeIV--><path codeLine="34" d="M769.7727,429.5164 C769.7727,429.5164 730.81,459.97 713.63,473.39 " fill="none" id="mirror-felipeIV" style="stroke:#A80036;stroke-width:1.0;"/><polygon fill="#A80036" points="702.99,481.7,712.543,479.3043,706.9279,478.6189,707.6133,473.0037,702.99,481.7" style="stroke:#A80036;stroke-width:1.0;"/><line style="stroke:#A80036;stroke-width:1.0;" x1="706.9279" x2="713.235" y1="478.6189" y2="473.695"/><polygon fill="#A80036" points="779.23,422.13,772.0392,422.6708,769.7727,429.5164,776.9635,428.9757,779.23,422.13" style="stroke:#A80036;stroke-width:1.0;"/><!--MD5=[94084ff8f7c530cb5c58d6d5e6f593d6]
link mirror to marianaDeAustria--><path codeLine="35" d="M800.5,434.13 C800.5,434.13 800.5,457.95 800.5,468.65 " fill="none" id="mirror-marianaDeAustria" style="stroke:#A80036;stroke-width:1.0;"/><polygon fill="#A80036" points="800.5,481.7,804.5,472.7,800.5,476.7,796.5,472.7,800.5,481.7" style="stroke:#A80036;stroke-width:1.0;"/><line style="stroke:#A80036;stroke-width:1.0;" x1="800.5" x2="800.5" y1="476.7" y2="468.7"/><polygon fill="#A80036" points="800.5,422.13,796.5,428.13,800.5,434.13,804.5,428.13,800.5,422.13" style="stroke:#A80036;stroke-width:1.0;"/><!--MD5=[40ad622daadae0c93c77eb4db9c2e615]
link mirror to Observer--><path codeLine="36" d="M823.03,422.13 C844.48,437.96 876.8,461.82 899.6,478.65 " fill="none" id="mirror-to-Observer" style="stroke:#A80036;stroke-width:1.0;"/><polygon fill="#A80036" points="903.74,481.7,898.886,473.1304,899.7212,478.7252,894.1263,479.5605,903.74,481.7" style="stroke:#A80036;stroke-width:1.0;"/><!--MD5=[7f81b3d366f38e2c347f5d9dba6b59e7]
link Observer to meninas--><path codeLine="38" d="M926.5,481.9 C926.5,449.13 926.5,373.82 926.5,310.5 C926.5,213.5 926.5,213.5 926.5,213.5 C926.5,69.01 695.47,35.36 604.08,27.7 " fill="none" id="Observer-to-meninas" style="stroke:#A80036;stroke-width:1.0;stroke-dasharray:7.0,7.0;"/><polygon fill="#A80036" points="599.04,27.29,607.6913,31.9969,604.024,27.6899,608.3311,24.0226,599.04,27.29" style="stroke:#A80036;stroke-width:1.0;"/><!--MD5=[32c12dc7a394bd156e44db3d17dc5af6]
link velazquez to Canvas--><path codeLine="39" d="M461.81,232.13 C454.7,247.5 444.1,270.44 436.37,287.16 " fill="none" id="velazquez-to-Canvas" style="stroke:#A80036;stroke-width:1.0;"/><polygon fill="#A80036" points="434.27,291.7,441.685,285.2179,436.3735,287.164,434.4274,281.8524,434.27,291.7" style="stroke:#A80036;stroke-width:1.0;"/><!--MD5=[3031c336352079a7d3aef28d172ffee8]
link Canvas to meninas--><path codeLine="40" d="M418.0638,280.0024 C418.0638,280.0024 408.61,223.47 418.5,197 C441.69,134.96 498.57,80.52 534.96,50.4 " fill="none" id="Canvas-meninas" style="stroke:#A80036;stroke-width:1.0;"/><polygon fill="#A80036" points="545.09,42.21,535.5773,44.7611,541.2029,45.3549,540.6091,50.9805,545.09,42.21" style="stroke:#A80036;stroke-width:1.0;"/><line style="stroke:#A80036;stroke-width:1.0;" x1="541.2029" x2="534.98" y1="45.3549" y2="50.385"/><polygon fill="#FFFFFF" points="421.03,291.63,423.4228,284.8274,418.0638,280.0024,415.671,286.8049,421.03,291.63" style="stroke:#A80036;stroke-width:1.0;"/><!--MD5=[0733b044ea05de880e42496a5b894e16]
link Canvas to mirror--><path codeLine="41" d="M467.8071,320.7687 C467.8071,320.7687 694.36,377.11 763.99,394.42 " fill="none" id="Canvas-mirror" style="stroke:#A80036;stroke-width:1.0;"/><polygon fill="#A80036" points="776.78,397.6,769.014,391.5428,771.9283,396.3912,767.0799,399.3055,776.78,397.6" style="stroke:#A80036;stroke-width:1.0;"/><line style="stroke:#A80036;stroke-width:1.0;" x1="771.9283" x2="764.16" y1="396.3912" y2="394.465"/><polygon fill="#FFFFFF" points="456.16,317.88,461.0207,323.2067,467.8071,320.7687,462.9465,315.442,456.16,317.88" style="stroke:#A80036;stroke-width:1.0;"/><!--MD5=[ffeb1088464588ea3a8f519e2062b47a]
@startuml 3
object meninas
object ":Observer" as Observer
object ":Foreground" as Foreground
object ":Background" as Background
object ":ThirdPlane" as ThirdPlane
object margarita
object ":Menina" as Menina1
object ":Menina" as Menina2
object ":Canvas" as Canvas
object velazquez
object ":Servant" as Servant1
object ":Servant" as Servant2
object mirror
object felipeIV
object marianaDeAustria
object ":Personage" as Personage

meninas *- -> Foreground
meninas *- -> Background
meninas *- -> ThirdPlane

Foreground *- -> margarita
Foreground *- -> Menina1
Foreground *- -> Menina2
Foreground *- -> Canvas

Background *- -> velazquez
Background *- -> Servant1
Background *- -> Servant2

ThirdPlane *- -> mirror
ThirdPlane *- -> Personage

mirror *- -> felipeIV
mirror *- -> marianaDeAustria
mirror - -> Observer

Observer ..> meninas
velazquez - -> Canvas
Canvas o- -> meninas
Canvas o- -> mirror

@enduml

PlantUML version 1.2022.0(Tue Jan 11 17:16:42 CET 2022)
(GPL source distribution)
Java Runtime: OpenJDK Runtime Environment
JVM: OpenJDK 64-Bit Server VM
Default Encoding: Cp1252
Language: es
Country: ES
--></g></svg>