<?xml version="1.0" encoding="UTF-8" standalone="no"?><svg xmlns="http://www.w3.org/2000/svg" xmlns:xlink="http://www.w3.org/1999/xlink" contentScriptType="application/ecmascript" contentStyleType="text/css" height="321px" preserveAspectRatio="none" style="width:240px;height:321px;background:#FFFFFF;" version="1.1" viewBox="0 0 240 321" width="240px" zoomAndPan="magnify"><defs><filter height="300%" id="f1cgtlhexo2djy" width="300%" x="-1" y="-1"><feGaussianBlur result="blurOut" stdDeviation="2.0"/><feColorMatrix in="blurOut" result="blurOut2" type="matrix" values="0 0 0 0 0 0 0 0 0 0 0 0 0 0 0 0 0 0 .4 0"/><feOffset dx="4.0" dy="4.0" in="blurOut2" result="blurOut3"/><feBlend in="SourceGraphic" in2="blurOut3" mode="normal"/></filter></defs><g><!--MD5=[18b89e0834131a909517048318a5909c]
class Picture--><rect fill="#FEFECE" filter="url(#f1cgtlhexo2djy)" height="48" id="Picture" style="stroke:#A80036;stroke-width:1.5;" width="70" x="87.5" y="7"/><ellipse cx="102.5" cy="23" fill="#ADD1B2" rx="11" ry="11" style="stroke:#A80036;stroke-width:1.0;"/><path d="M105.2656,18.875 Q105.4219,18.6563 105.6094,18.5469 Q105.7969,18.4375 106.0156,18.4375 Q106.3906,18.4375 106.625,18.7031 Q106.8594,18.9531 106.8594,19.5625 L106.8594,21.0156 Q106.8594,21.625 106.625,21.8906 Q106.3906,22.1563 106.0156,22.1563 Q105.6719,22.1563 105.4688,21.9531 Q105.2656,21.7656 105.1563,21.25 Q105.1094,20.8906 104.9219,20.7031 Q104.5938,20.3281 103.9844,20.1094 Q103.375,19.8906 102.75,19.8906 Q101.9844,19.8906 101.3438,20.2188 Q100.7188,20.5469 100.2188,21.2969 Q99.7344,22.0469 99.7344,23.0781 L99.7344,24.1719 Q99.7344,25.4063 100.625,26.2344 Q101.5156,27.0469 103.1094,27.0469 Q104.0469,27.0469 104.7031,26.7969 Q105.0938,26.6406 105.5156,26.2031 Q105.7813,25.9375 105.9219,25.8594 Q106.0781,25.7813 106.2813,25.7813 Q106.6094,25.7813 106.8594,26.0469 Q107.125,26.2969 107.125,26.6406 Q107.125,26.9844 106.7813,27.3906 Q106.2813,27.9688 105.4844,28.2969 Q104.4063,28.75 103.1094,28.75 Q101.5938,28.75 100.3906,28.125 Q99.4063,27.625 98.7188,26.5625 Q98.0313,25.4844 98.0313,24.2031 L98.0313,23.0469 Q98.0313,21.7188 98.6406,20.5781 Q99.2656,19.4219 100.3594,18.8125 Q101.4531,18.1875 102.6875,18.1875 Q103.4219,18.1875 104.0625,18.3594 Q104.7188,18.5156 105.2656,18.875 Z " fill="#000000"/><text fill="#000000" font-family="sans-serif" font-size="12" lengthAdjust="spacing" textLength="38" x="116.5" y="27.9102">Picture</text><line style="stroke:#A80036;stroke-width:1.5;" x1="88.5" x2="156.5" y1="39" y2="39"/><line style="stroke:#A80036;stroke-width:1.5;" x1="88.5" x2="156.5" y1="47" y2="47"/><!--MD5=[3eff9d4279c887ef9286477750bdaaff]
class Character--><rect fill="#FEFECE" filter="url(#f1cgtlhexo2djy)" height="48" id="Character" style="stroke:#A80036;stroke-width:1.5;" width="86" x="21.5" y="133"/><ellipse cx="36.5" cy="149" fill="#ADD1B2" rx="11" ry="11" style="stroke:#A80036;stroke-width:1.0;"/><path d="M39.2656,144.875 Q39.4219,144.6563 39.6094,144.5469 Q39.7969,144.4375 40.0156,144.4375 Q40.3906,144.4375 40.625,144.7031 Q40.8594,144.9531 40.8594,145.5625 L40.8594,147.0156 Q40.8594,147.625 40.625,147.8906 Q40.3906,148.1563 40.0156,148.1563 Q39.6719,148.1563 39.4688,147.9531 Q39.2656,147.7656 39.1563,147.25 Q39.1094,146.8906 38.9219,146.7031 Q38.5938,146.3281 37.9844,146.1094 Q37.375,145.8906 36.75,145.8906 Q35.9844,145.8906 35.3438,146.2188 Q34.7188,146.5469 34.2188,147.2969 Q33.7344,148.0469 33.7344,149.0781 L33.7344,150.1719 Q33.7344,151.4063 34.625,152.2344 Q35.5156,153.0469 37.1094,153.0469 Q38.0469,153.0469 38.7031,152.7969 Q39.0938,152.6406 39.5156,152.2031 Q39.7813,151.9375 39.9219,151.8594 Q40.0781,151.7813 40.2813,151.7813 Q40.6094,151.7813 40.8594,152.0469 Q41.125,152.2969 41.125,152.6406 Q41.125,152.9844 40.7813,153.3906 Q40.2813,153.9688 39.4844,154.2969 Q38.4063,154.75 37.1094,154.75 Q35.5938,154.75 34.3906,154.125 Q33.4063,153.625 32.7188,152.5625 Q32.0313,151.4844 32.0313,150.2031 L32.0313,149.0469 Q32.0313,147.7188 32.6406,146.5781 Q33.2656,145.4219 34.3594,144.8125 Q35.4531,144.1875 36.6875,144.1875 Q37.4219,144.1875 38.0625,144.3594 Q38.7188,144.5156 39.2656,144.875 Z " fill="#000000"/><text fill="#000000" font-family="sans-serif" font-size="12" lengthAdjust="spacing" textLength="54" x="50.5" y="153.9102">Character</text><line style="stroke:#A80036;stroke-width:1.5;" x1="22.5" x2="106.5" y1="165" y2="165"/><line style="stroke:#A80036;stroke-width:1.5;" x1="22.5" x2="106.5" y1="173" y2="173"/><!--MD5=[d40932010816485ec57b44b6eea2392a]
class Observer--><rect fill="#FEFECE" filter="url(#f1cgtlhexo2djy)" height="48" id="Observer" style="stroke:#A80036;stroke-width:1.5;" width="82" x="129.5" y="259"/><ellipse cx="144.5" cy="275" fill="#ADD1B2" rx="11" ry="11" style="stroke:#A80036;stroke-width:1.0;"/><path d="M147.2656,270.875 Q147.4219,270.6563 147.6094,270.5469 Q147.7969,270.4375 148.0156,270.4375 Q148.3906,270.4375 148.625,270.7031 Q148.8594,270.9531 148.8594,271.5625 L148.8594,273.0156 Q148.8594,273.625 148.625,273.8906 Q148.3906,274.1563 148.0156,274.1563 Q147.6719,274.1563 147.4688,273.9531 Q147.2656,273.7656 147.1563,273.25 Q147.1094,272.8906 146.9219,272.7031 Q146.5938,272.3281 145.9844,272.1094 Q145.375,271.8906 144.75,271.8906 Q143.9844,271.8906 143.3438,272.2188 Q142.7188,272.5469 142.2188,273.2969 Q141.7344,274.0469 141.7344,275.0781 L141.7344,276.1719 Q141.7344,277.4063 142.625,278.2344 Q143.5156,279.0469 145.1094,279.0469 Q146.0469,279.0469 146.7031,278.7969 Q147.0938,278.6406 147.5156,278.2031 Q147.7813,277.9375 147.9219,277.8594 Q148.0781,277.7813 148.2813,277.7813 Q148.6094,277.7813 148.8594,278.0469 Q149.125,278.2969 149.125,278.6406 Q149.125,278.9844 148.7813,279.3906 Q148.2813,279.9688 147.4844,280.2969 Q146.4063,280.75 145.1094,280.75 Q143.5938,280.75 142.3906,280.125 Q141.4063,279.625 140.7188,278.5625 Q140.0313,277.4844 140.0313,276.2031 L140.0313,275.0469 Q140.0313,273.7188 140.6406,272.5781 Q141.2656,271.4219 142.3594,270.8125 Q143.4531,270.1875 144.6875,270.1875 Q145.4219,270.1875 146.0625,270.3594 Q146.7188,270.5156 147.2656,270.875 Z " fill="#000000"/><text fill="#000000" font-family="sans-serif" font-size="12" lengthAdjust="spacing" textLength="50" x="158.5" y="279.9102">Observer</text><line style="stroke:#A80036;stroke-width:1.5;" x1="130.5" x2="210.5" y1="291" y2="291"/><line style="stroke:#A80036;stroke-width:1.5;" x1="130.5" x2="210.5" y1="299" y2="299"/><!--MD5=[a64a835c3d62471a77f615251fdde58a]
class Position--><rect fill="#FEFECE" filter="url(#f1cgtlhexo2djy)" height="48" id="Position" style="stroke:#A80036;stroke-width:1.5;" width="77" x="7" y="259"/><ellipse cx="22" cy="275" fill="#ADD1B2" rx="11" ry="11" style="stroke:#A80036;stroke-width:1.0;"/><path d="M24.7656,270.875 Q24.9219,270.6563 25.1094,270.5469 Q25.2969,270.4375 25.5156,270.4375 Q25.8906,270.4375 26.125,270.7031 Q26.3594,270.9531 26.3594,271.5625 L26.3594,273.0156 Q26.3594,273.625 26.125,273.8906 Q25.8906,274.1563 25.5156,274.1563 Q25.1719,274.1563 24.9688,273.9531 Q24.7656,273.7656 24.6563,273.25 Q24.6094,272.8906 24.4219,272.7031 Q24.0938,272.3281 23.4844,272.1094 Q22.875,271.8906 22.25,271.8906 Q21.4844,271.8906 20.8438,272.2188 Q20.2188,272.5469 19.7188,273.2969 Q19.2344,274.0469 19.2344,275.0781 L19.2344,276.1719 Q19.2344,277.4063 20.125,278.2344 Q21.0156,279.0469 22.6094,279.0469 Q23.5469,279.0469 24.2031,278.7969 Q24.5938,278.6406 25.0156,278.2031 Q25.2813,277.9375 25.4219,277.8594 Q25.5781,277.7813 25.7813,277.7813 Q26.1094,277.7813 26.3594,278.0469 Q26.625,278.2969 26.625,278.6406 Q26.625,278.9844 26.2813,279.3906 Q25.7813,279.9688 24.9844,280.2969 Q23.9063,280.75 22.6094,280.75 Q21.0938,280.75 19.8906,280.125 Q18.9063,279.625 18.2188,278.5625 Q17.5313,277.4844 17.5313,276.2031 L17.5313,275.0469 Q17.5313,273.7188 18.1406,272.5781 Q18.7656,271.4219 19.8594,270.8125 Q20.9531,270.1875 22.1875,270.1875 Q22.9219,270.1875 23.5625,270.3594 Q24.2188,270.5156 24.7656,270.875 Z " fill="#000000"/><text fill="#000000" font-family="sans-serif" font-size="12" lengthAdjust="spacing" textLength="45" x="36" y="279.9102">Position</text><line style="stroke:#A80036;stroke-width:1.5;" x1="8" x2="83" y1="291" y2="291"/><line style="stroke:#A80036;stroke-width:1.5;" x1="8" x2="83" y1="299" y2="299"/><!--MD5=[15710c6c3a6d33d3b949dfd8b4da1705]
link Picture to Character--><path codeLine="2" d="M78.4403,61.9085 C78.4403,61.9085 65.25,76.77 61.5,85 C56.61,95.73 55.79,108.35 56.68,119.95 " fill="none" id="Picture-Character" style="stroke:#A80036;stroke-width:1.0;"/><polygon fill="#A80036" points="58.37,132.92,61.1688,123.4772,57.7214,127.9622,53.2364,124.5149,58.37,132.92" style="stroke:#A80036;stroke-width:1.0;"/><line style="stroke:#A80036;stroke-width:1.0;" x1="57.7214" x2="56.69" y1="127.9622" y2="120.03"/><polygon fill="#A80036" points="87.35,53.87,80.2157,54.9194,78.4403,61.9085,85.5747,60.8591,87.35,53.87" style="stroke:#A80036;stroke-width:1.0;"/><polygon fill="#000000" points="64.7448,98.8576,70.6719,91.4198,65.1681,89.3564,64.7448,98.8576" style="stroke:#000000;stroke-width:1.0;"/><text fill="#000000" font-family="sans-serif" font-size="13" lengthAdjust="spacing" textLength="78" x="75.5" y="99.4951">composed by</text><text fill="#000000" font-family="sans-serif" font-size="13" lengthAdjust="spacing" textLength="7" x="48.9023" y="122.2397">n</text><!--MD5=[1d7971f427ce93495985960634fdb962]
link Observer to Picture--><path codeLine="3" d="M172.97,258.79 C176.12,221.16 178.97,145 158.5,85 C155.44,76.03 150.43,67.16 145.1,59.31 " fill="none" id="Observer-to-Picture" style="stroke:#A80036;stroke-width:1.0;"/><polygon fill="#A80036" points="142.12,55.07,144.0065,64.7365,144.9883,59.1655,150.5593,60.1473,142.12,55.07" style="stroke:#A80036;stroke-width:1.0;"/><polygon fill="#000000" points="178.8082,152.2239,177.1491,161.5886,182.9704,160.7753,178.8082,152.2239" style="stroke:#000000;stroke-width:1.0;"/><text fill="#000000" font-family="sans-serif" font-size="13" lengthAdjust="spacing" textLength="44" x="188.5" y="162.4951">observe</text><!--MD5=[90107d809afcc7a0b4403391955a1895]
link Character to Position--><path codeLine="4" d="M59.1513,192.8914 C59.1513,192.8914 53.55,229.43 51.05,245.76 " fill="none" id="Character-Position" style="stroke:#A80036;stroke-width:1.0;"/><polygon fill="#A80036" points="49.07,258.67,54.3892,250.3811,49.8286,253.7279,46.4819,249.1673,49.07,258.67" style="stroke:#A80036;stroke-width:1.0;"/><line style="stroke:#A80036;stroke-width:1.0;" x1="49.8286" x2="51.045" y1="253.7279" y2="245.82"/><polygon fill="#A80036" points="60.97,181.03,56.1068,186.3544,59.1513,192.8914,64.0144,187.5669,60.97,181.03" style="stroke:#A80036;stroke-width:1.0;"/><!--MD5=[a18ecd773d6a0244eb5d06d5c4ebb560]
link Character to Observer--><path codeLine="5" d="M73.15,181.32 C79.32,196 88.63,214.79 100.5,229 C108.78,238.91 119.25,248.07 129.56,255.89 " fill="none" id="Character-to-Observer" style="stroke:#A80036;stroke-width:1.0;"/><polygon fill="#A80036" points="133.64,258.93,128.8057,250.3493,129.628,255.946,124.0313,256.7684,133.64,258.93" style="stroke:#A80036;stroke-width:1.0;"/><polygon fill="#000000" points="108.5165,224.1634,105.4035,215.1767,100.7158,218.7228,108.5165,224.1634" style="stroke:#000000;stroke-width:1.0;"/><text fill="#000000" font-family="sans-serif" font-size="13" lengthAdjust="spacing" textLength="39" x="114.5" y="225.4951">look at</text><!--MD5=[4610d80c5899825715fdbc2667fb5241]
@startuml 1

Picture *- -> "n" Character : composed by >
Observer - -> Picture  : observe >
Character *- -> Position
Character - -> Observer : look at >

@enduml

PlantUML version 1.2022.0(Tue Jan 11 17:16:42 CET 2022)
(GPL source distribution)
Java Runtime: OpenJDK Runtime Environment
JVM: OpenJDK 64-Bit Server VM
Default Encoding: Cp1252
Language: es
Country: ES
--></g></svg>