<?xml version="1.0" encoding="UTF-8" standalone="no"?><svg xmlns="http://www.w3.org/2000/svg" xmlns:xlink="http://www.w3.org/1999/xlink" contentScriptType="application/ecmascript" contentStyleType="text/css" height="531px" preserveAspectRatio="none" style="width:1114px;height:531px;background:#FFFFFF;" version="1.1" viewBox="0 0 1114 531" width="1114px" zoomAndPan="magnify"><defs><filter height="300%" id="f1updkcnbiwmaz" width="300%" x="-1" y="-1"><feGaussianBlur result="blurOut" stdDeviation="2.0"/><feColorMatrix in="blurOut" result="blurOut2" type="matrix" values="0 0 0 0 0 0 0 0 0 0 0 0 0 0 0 0 0 0 .4 0"/><feOffset dx="4.0" dy="4.0" in="blurOut2" result="blurOut3"/><feBlend in="SourceGraphic" in2="blurOut3" mode="normal"/></filter></defs><g><rect fill="#FEFECE" filter="url(#f1updkcnbiwmaz)" height="35.0938" style="stroke:#A80036;stroke-width:1.5;" width="78" x="522" y="7"/><text fill="#000000" font-family="sans-serif" font-size="12" lengthAdjust="spacing" textLength="64" x="529" y="21.457">masterPDS</text><line style="stroke:#A80036;stroke-width:1.5;" x1="523" x2="599" y1="26.0938" y2="26.0938"/><rect fill="#FEFECE" filter="url(#f1updkcnbiwmaz)" height="35.0938" style="stroke:#A80036;stroke-width:1.5;" width="82" x="373" y="102"/><text fill="#000000" font-family="sans-serif" font-size="12" lengthAdjust="spacing" textLength="68" x="380" y="116.457">luis:Teacher</text><line style="stroke:#A80036;stroke-width:1.5;" x1="374" x2="454" y1="121.0938" y2="121.0938"/><rect fill="#FEFECE" filter="url(#f1updkcnbiwmaz)" height="35.0938" style="stroke:#A80036;stroke-width:1.5;" width="58" x="533" y="197"/><text fill="#000000" font-family="sans-serif" font-size="12" lengthAdjust="spacing" textLength="44" x="540" y="211.457">:Temary</text><line style="stroke:#A80036;stroke-width:1.5;" x1="534" x2="590" y1="216.0938" y2="216.0938"/><rect fill="#FEFECE" filter="url(#f1updkcnbiwmaz)" height="35.0938" style="stroke:#A80036;stroke-width:1.5;" width="61" x="615.5" y="292"/><text fill="#000000" font-family="sans-serif" font-size="12" lengthAdjust="spacing" textLength="47" x="622.5" y="306.457">:Practice</text><line style="stroke:#A80036;stroke-width:1.5;" x1="616.5" x2="675.5" y1="311.0938" y2="311.0938"/><rect fill="#FEFECE" filter="url(#f1updkcnbiwmaz)" height="35.0938" style="stroke:#A80036;stroke-width:1.5;" width="54" x="490" y="102"/><text fill="#000000" font-family="sans-serif" font-size="12" lengthAdjust="spacing" textLength="40" x="497" y="116.457">:Viewer</text><line style="stroke:#A80036;stroke-width:1.5;" x1="491" x2="543" y1="121.0938" y2="121.0938"/><rect fill="#FEFECE" filter="url(#f1updkcnbiwmaz)" height="35.0938" style="stroke:#A80036;stroke-width:1.5;" width="54" x="579" y="102"/><text fill="#000000" font-family="sans-serif" font-size="12" lengthAdjust="spacing" textLength="40" x="586" y="116.457">:Viewer</text><line style="stroke:#A80036;stroke-width:1.5;" x1="580" x2="632" y1="121.0938" y2="121.0938"/><rect fill="#FEFECE" filter="url(#f1updkcnbiwmaz)" height="35.0938" style="stroke:#A80036;stroke-width:1.5;" width="54" x="668" y="102"/><text fill="#000000" font-family="sans-serif" font-size="12" lengthAdjust="spacing" textLength="40" x="675" y="116.457">:Viewer</text><line style="stroke:#A80036;stroke-width:1.5;" x1="669" x2="721" y1="121.0938" y2="121.0938"/><rect fill="#FEFECE" filter="url(#f1updkcnbiwmaz)" height="35.0938" style="stroke:#A80036;stroke-width:1.5;" width="54" x="757" y="102"/><text fill="#000000" font-family="sans-serif" font-size="12" lengthAdjust="spacing" textLength="40" x="764" y="116.457">:Viewer</text><line style="stroke:#A80036;stroke-width:1.5;" x1="758" x2="810" y1="121.0938" y2="121.0938"/><rect fill="#FEFECE" filter="url(#f1updkcnbiwmaz)" height="35.0938" style="stroke:#A80036;stroke-width:1.5;" width="44" x="55" y="482"/><text fill="#000000" font-family="sans-serif" font-size="12" lengthAdjust="spacing" textLength="30" x="62" y="496.457">:Artist</text><line style="stroke:#A80036;stroke-width:1.5;" x1="56" x2="98" y1="501.0938" y2="501.0938"/><rect fill="#FEFECE" filter="url(#f1updkcnbiwmaz)" height="35.0938" style="stroke:#A80036;stroke-width:1.5;" width="44" x="211" y="482"/><text fill="#000000" font-family="sans-serif" font-size="12" lengthAdjust="spacing" textLength="30" x="218" y="496.457">:Artist</text><line style="stroke:#A80036;stroke-width:1.5;" x1="212" x2="254" y1="501.0938" y2="501.0938"/><rect fill="#FEFECE" filter="url(#f1updkcnbiwmaz)" height="35.0938" style="stroke:#A80036;stroke-width:1.5;" width="44" x="858" y="482"/><text fill="#000000" font-family="sans-serif" font-size="12" lengthAdjust="spacing" textLength="30" x="865" y="496.457">:Artist</text><line style="stroke:#A80036;stroke-width:1.5;" x1="859" x2="901" y1="501.0938" y2="501.0938"/><rect fill="#FEFECE" filter="url(#f1updkcnbiwmaz)" height="35.0938" style="stroke:#A80036;stroke-width:1.5;" width="44" x="1014" y="482"/><text fill="#000000" font-family="sans-serif" font-size="12" lengthAdjust="spacing" textLength="30" x="1021" y="496.457">:Artist</text><line style="stroke:#A80036;stroke-width:1.5;" x1="1015" x2="1057" y1="501.0938" y2="501.0938"/><rect fill="#FEFECE" filter="url(#f1updkcnbiwmaz)" height="35.0938" style="stroke:#A80036;stroke-width:1.5;" width="68" x="199" y="102"/><text fill="#000000" font-family="sans-serif" font-size="12" lengthAdjust="spacing" textLength="54" x="206" y="116.457">:Reviewer</text><line style="stroke:#A80036;stroke-width:1.5;" x1="200" x2="266" y1="121.0938" y2="121.0938"/><rect fill="#FEFECE" filter="url(#f1updkcnbiwmaz)" height="35.0938" style="stroke:#A80036;stroke-width:1.5;" width="68" x="846" y="102"/><text fill="#000000" font-family="sans-serif" font-size="12" lengthAdjust="spacing" textLength="54" x="853" y="116.457">:Reviewer</text><line style="stroke:#A80036;stroke-width:1.5;" x1="847" x2="913" y1="121.0938" y2="121.0938"/><rect fill="#FEFECE" filter="url(#f1updkcnbiwmaz)" height="35.0938" style="stroke:#A80036;stroke-width:1.5;" width="62" x="202" y="387"/><text fill="#000000" font-family="sans-serif" font-size="12" lengthAdjust="spacing" textLength="48" x="209" y="401.457">:Solution</text><line style="stroke:#A80036;stroke-width:1.5;" x1="203" x2="263" y1="406.0938" y2="406.0938"/><rect fill="#FEFECE" filter="url(#f1updkcnbiwmaz)" height="35.0938" style="stroke:#A80036;stroke-width:1.5;" width="62" x="849" y="387"/><text fill="#000000" font-family="sans-serif" font-size="12" lengthAdjust="spacing" textLength="48" x="856" y="401.457">:Solution</text><line style="stroke:#A80036;stroke-width:1.5;" x1="850" x2="910" y1="406.0938" y2="406.0938"/><!--MD5=[3c806b0400cb761173881b3e53820d1c]
link masterPDS to luis--><path codeLine="19" d="M524.582,48.5503 C524.582,48.5503 473.81,80.66 451.8,94.58 " fill="none" id="masterPDS-luis" style="stroke:#A80036;stroke-width:1.0;"/><polygon fill="#A80036" points="440.55,101.7,450.2936,100.2641,444.7742,99.0249,446.0134,93.5054,440.55,101.7" style="stroke:#A80036;stroke-width:1.0;"/><line style="stroke:#A80036;stroke-width:1.0;" x1="444.7742" x2="451.535" y1="99.0249" y2="94.755"/><polygon fill="#A80036" points="534.72,42.13,527.5109,41.9608,524.582,48.5503,531.7911,48.7195,534.72,42.13" style="stroke:#A80036;stroke-width:1.0;"/><!--MD5=[a453d3db4a17be6c1c5485193d26e36b]
link masterPDS to Viewer1--><path codeLine="20" d="M548.002,52.9791 C548.002,52.9791 535.91,78.53 530.56,89.83 " fill="none" id="masterPDS-Viewer1" style="stroke:#A80036;stroke-width:1.0;"/><polygon fill="#A80036" points="524.95,101.7,532.4124,95.2725,527.0867,97.1795,525.1796,91.8538,524.95,101.7" style="stroke:#A80036;stroke-width:1.0;"/><line style="stroke:#A80036;stroke-width:1.0;" x1="527.0867" x2="530.505" y1="97.1795" y2="89.955"/><polygon fill="#A80036" points="553.13,42.13,546.9496,45.8452,548.002,52.9791,554.1824,49.2639,553.13,42.13" style="stroke:#A80036;stroke-width:1.0;"/><!--MD5=[605e0376b164df31a623985335064d7b]
link masterPDS to Viewer2--><path codeLine="21" d="M574.2736,52.9334 C574.2736,52.9334 586.66,78.53 592.13,89.83 " fill="none" id="masterPDS-Viewer2" style="stroke:#A80036;stroke-width:1.0;"/><polygon fill="#A80036" points="597.87,101.7,597.5581,91.8561,595.6956,97.1975,590.3542,95.3351,597.87,101.7" style="stroke:#A80036;stroke-width:1.0;"/><line style="stroke:#A80036;stroke-width:1.0;" x1="595.6956" x2="592.21" y1="97.1975" y2="90"/><polygon fill="#A80036" points="569.05,42.13,568.0607,49.2729,574.2736,52.9334,575.263,45.7905,569.05,42.13" style="stroke:#A80036;stroke-width:1.0;"/><!--MD5=[71503c895744521146e6c88eabaedc33]
link masterPDS to Viewer3--><path codeLine="22" d="M594.8192,48.9708 C594.8192,48.9708 640.31,80.54 660.09,94.27 " fill="none" id="masterPDS-Viewer3" style="stroke:#A80036;stroke-width:1.0;"/><polygon fill="#A80036" points="670.8,101.7,665.6859,93.283,666.692,98.8497,661.1253,99.8558,670.8,101.7" style="stroke:#A80036;stroke-width:1.0;"/><line style="stroke:#A80036;stroke-width:1.0;" x1="666.692" x2="660.115" y1="98.8497" y2="94.29"/><polygon fill="#A80036" points="584.96,42.13,587.6093,48.8368,594.8192,48.9708,592.1699,42.264,584.96,42.13" style="stroke:#A80036;stroke-width:1.0;"/><!--MD5=[2b466b6c717a0c546f577b53285f0259]
link masterPDS to Viewer4--><path codeLine="23" d="M611.1769,46.4254 C611.1769,46.4254 707.84,86.74 744.68,102.1 " fill="none" id="masterPDS-Viewer4" style="stroke:#A80036;stroke-width:1.0;"/><polygon fill="#A80036" points="756.89,107.19,750.1208,100.0362,752.2746,105.2669,747.0438,107.4208,756.89,107.19" style="stroke:#A80036;stroke-width:1.0;"/><line style="stroke:#A80036;stroke-width:1.0;" x1="752.2746" x2="744.89" y1="105.2669" y2="102.19"/><polygon fill="#A80036" points="600.1,41.81,604.1,47.81,611.1769,46.4254,607.1769,40.4254,600.1,41.81" style="stroke:#A80036;stroke-width:1.0;"/><!--MD5=[2eb8e491aa2f47ca9f9c9294d1d83d97]
link masterPDS to Artist1--><path codeLine="24" d="M509.9014,25.3746 C509.9014,25.3746 253.96,39.18 127,102 C61.46,134.43 6,140.37 6,213.5 C6,213.5 6,213.5 6,310.5 C6,370.42 37.96,434.56 58.99,470.29 " fill="none" id="masterPDS-Artist1" style="stroke:#A80036;stroke-width:1.0;"/><polygon fill="#A80036" points="65.91,481.69,64.6616,471.9206,63.3165,477.4152,57.8219,476.0701,65.91,481.69" style="stroke:#A80036;stroke-width:1.0;"/><line style="stroke:#A80036;stroke-width:1.0;" x1="63.3165" x2="59.16" y1="477.4152" y2="470.57"/><polygon fill="#A80036" points="521.9,25.19,515.8392,21.2828,509.9014,25.3746,515.9622,29.2818,521.9,25.19" style="stroke:#A80036;stroke-width:1.0;"/><!--MD5=[6c19d57afd695f78a85e2f802bc2732a]
link masterPDS to Artist2--><path codeLine="25" d="M509.872,28.0555 C509.872,28.0555 221.84,52.12 181,102 C167.17,118.9 73.42,51.59 184,422 C189.32,439.83 200.14,457.47 210.27,471.31 " fill="none" id="masterPDS-Artist2" style="stroke:#A80036;stroke-width:1.0;"/><polygon fill="#A80036" points="218.47,481.97,216.1499,472.3983,215.4201,478.0079,209.8105,477.2781,218.47,481.97" style="stroke:#A80036;stroke-width:1.0;"/><line style="stroke:#A80036;stroke-width:1.0;" x1="215.4201" x2="210.535" y1="478.0079" y2="471.665"/><polygon fill="#A80036" points="521.85,27.33,515.6191,23.7001,509.872,28.0555,516.1028,31.6855,521.85,27.33" style="stroke:#A80036;stroke-width:1.0;"/><!--MD5=[c4f37fff7a9d081423b55e71156c2ef9]
link masterPDS to Artist3--><path codeLine="26" d="M612.1747,28.3181 C612.1747,28.3181 892.4,53.4 932,102 C945.82,118.96 1039.43,52.08 929,422 C923.68,439.83 912.86,457.47 902.73,471.31 " fill="none" id="masterPDS-Artist3" style="stroke:#A80036;stroke-width:1.0;"/><polygon fill="#A80036" points="894.53,481.97,903.1895,477.2781,897.5799,478.0079,896.8501,472.3983,894.53,481.97" style="stroke:#A80036;stroke-width:1.0;"/><line style="stroke:#A80036;stroke-width:1.0;" x1="897.5799" x2="902.465" y1="478.0079" y2="471.665"/><polygon fill="#A80036" points="600.2,27.54,605.928,31.9206,612.1747,28.3181,606.4467,23.9375,600.2,27.54" style="stroke:#A80036;stroke-width:1.0;"/><!--MD5=[b01cb849eb2c4a1c4df7cbc45acae633]
link masterPDS to Artist4--><path codeLine="27" d="M612.2143,26.0991 C612.2143,26.0991 858.62,42.54 981,102 C1048.26,134.68 1107,138.72 1107,213.5 C1107,213.5 1107,213.5 1107,310.5 C1107,370.42 1075.04,434.56 1054.01,470.29 " fill="none" id="masterPDS-Artist4" style="stroke:#A80036;stroke-width:1.0;"/><polygon fill="#A80036" points="1047.09,481.69,1055.1781,476.0701,1049.6835,477.4152,1048.3384,471.9206,1047.09,481.69" style="stroke:#A80036;stroke-width:1.0;"/><line style="stroke:#A80036;stroke-width:1.0;" x1="1049.6835" x2="1053.84" y1="477.4152" y2="470.57"/><polygon fill="#A80036" points="600.22,25.73,606.0941,29.9126,612.2143,26.0991,606.3402,21.9164,600.22,25.73" style="stroke:#A80036;stroke-width:1.0;"/><!--MD5=[39ad0ea31bac4a5c572f74443ce3780c]
link masterPDS to Reviewer1--><path codeLine="28" d="M510.2172,39.911 C510.2172,39.911 340.55,88.01 279.91,105.2 " fill="none" id="masterPDS-Reviewer1" style="stroke:#A80036;stroke-width:1.0;"/><polygon fill="#A80036" points="267.31,108.77,277.0597,110.1642,272.1205,107.4066,274.8782,102.4674,267.31,108.77" style="stroke:#A80036;stroke-width:1.0;"/><line style="stroke:#A80036;stroke-width:1.0;" x1="272.1205" x2="279.82" y1="107.4066" y2="105.225"/><polygon fill="#A80036" points="521.76,36.63,514.895,34.4229,510.2172,39.911,517.0823,42.1181,521.76,36.63" style="stroke:#A80036;stroke-width:1.0;"/><!--MD5=[cf43b70a4c6b157a130b75fe897ab0e2]
link masterPDS to Reviewer2--><path codeLine="29" d="M611.7443,39.4242 C611.7443,39.4242 754.16,79.22 829,102 C830.36,102.41 831.73,102.84 833.12,103.27 " fill="none" id="masterPDS-Reviewer2" style="stroke:#A80036;stroke-width:1.0;"/><polygon fill="#A80036" points="845.76,107.24,838.3816,100.7163,840.9919,105.7349,835.9734,108.3452,845.76,107.24" style="stroke:#A80036;stroke-width:1.0;"/><line style="stroke:#A80036;stroke-width:1.0;" x1="840.9919" x2="833.36" y1="105.7349" y2="103.34"/><polygon fill="#A80036" points="600.18,36.22,604.8941,41.6769,611.7443,39.4242,607.0302,33.9674,600.18,36.22" style="stroke:#A80036;stroke-width:1.0;"/><!--MD5=[d5fb2f9284006d9cb10153f99a41e43a]
link masterPDS to Temary--><path codeLine="30" d="M509.9976,32.6286 C509.9976,32.6286 312.71,76.29 355,137 C392.13,190.31 470.88,206.56 519.84,211.46 " fill="none" id="masterPDS-Temary" style="stroke:#A80036;stroke-width:1.0;"/><polygon fill="#A80036" points="532.79,212.56,524.1606,207.813,527.8079,212.137,523.4839,215.7843,532.79,212.56" style="stroke:#A80036;stroke-width:1.0;"/><line style="stroke:#A80036;stroke-width:1.0;" x1="527.8079" x2="519.835" y1="212.137" y2="211.455"/><polygon fill="#A80036" points="521.84,30.69,515.2726,27.7118,509.9976,32.6286,516.565,35.6067,521.84,30.69" style="stroke:#A80036;stroke-width:1.0;"/><!--MD5=[3b75b9575db9835933286cf9af2c5355]
link Temary to Practice--><path codeLine="32" d="M585.0592,241.039 C585.0592,241.039 610.63,269.34 621.93,281.85 " fill="none" id="Temary-Practice" style="stroke:#A80036;stroke-width:1.0;"/><polygon fill="#A80036" points="630.83,291.7,627.7634,282.3407,627.4776,287.9904,621.828,287.7046,630.83,291.7" style="stroke:#A80036;stroke-width:1.0;"/><line style="stroke:#A80036;stroke-width:1.0;" x1="627.4776" x2="622.115" y1="287.9904" y2="282.06"/><polygon fill="#A80036" points="577.02,232.13,578.0699,239.2643,585.0592,241.039,584.0093,233.9048,577.02,232.13" style="stroke:#A80036;stroke-width:1.0;"/><!--MD5=[6ac1d83e51605de255d7b05169509410]
link luis to Temary--><path codeLine="34" d="M440.46,137.13 C465.77,153.03 503.94,177.02 530.74,193.86 " fill="none" id="luis-to-Temary" style="stroke:#A80036;stroke-width:1.0;"/><polygon fill="#A80036" points="535.27,196.7,529.7654,188.533,531.0324,194.0462,525.5193,195.3132,535.27,196.7" style="stroke:#A80036;stroke-width:1.0;"/><!--MD5=[4da1c9972b80e6b51d6e3696b772f49a]
link Viewer1 to Temary--><path codeLine="35" d="M525.05,137.13 C532.49,152.5 543.58,175.44 551.68,192.16 " fill="none" id="Viewer1-to-Temary" style="stroke:#A80036;stroke-width:1.0;stroke-dasharray:7.0,7.0;"/><polygon fill="#A80036" points="553.87,196.7,553.5359,186.8568,551.6855,192.2025,546.3398,190.352,553.87,196.7" style="stroke:#A80036;stroke-width:1.0;"/><!--MD5=[62595d1c4b9073843934cff7f5956da3]
link Viewer2 to Temary--><path codeLine="36" d="M598.13,137.13 C590.86,152.5 580.01,175.44 572.09,192.16 " fill="none" id="Viewer2-to-Temary" style="stroke:#A80036;stroke-width:1.0;stroke-dasharray:7.0,7.0;"/><polygon fill="#A80036" points="569.95,196.7,577.3985,190.2564,572.0769,192.1749,570.1584,186.8533,569.95,196.7" style="stroke:#A80036;stroke-width:1.0;"/><!--MD5=[28884a422f69e10f9de326bb6f0f2433]
link Viewer3 to Temary--><path codeLine="37" d="M671.22,137.13 C648.57,152.96 614.46,176.82 590.39,193.65 " fill="none" id="Viewer3-to-Temary" style="stroke:#A80036;stroke-width:1.0;stroke-dasharray:7.0,7.0;"/><polygon fill="#A80036" points="586.02,196.7,595.6909,194.8361,590.1222,193.8413,591.117,188.2726,586.02,196.7" style="stroke:#A80036;stroke-width:1.0;"/><!--MD5=[0ef799d7e439755c9753285c95997ed1]
link Viewer4 to Temary--><path codeLine="38" d="M756.78,131.9 C716.23,148.89 640.01,180.82 595.9,199.3 " fill="none" id="Viewer4-to-Temary" style="stroke:#A80036;stroke-width:1.0;stroke-dasharray:7.0,7.0;"/><polygon fill="#A80036" points="591.21,201.26,601.0569,201.454,595.8182,199.3197,597.9525,194.0809,591.21,201.26" style="stroke:#A80036;stroke-width:1.0;"/><!--MD5=[5c6ea0541b9a50d75332192ab331350b]
link Reviewer1 to Temary--><path codeLine="40" d="M267.28,130.19 C330.35,148.02 464.12,185.83 527.42,203.72 " fill="none" id="Reviewer1-to-Temary" style="stroke:#A80036;stroke-width:1.0;stroke-dasharray:7.0,7.0;"/><polygon fill="#A80036" points="532.59,205.19,525.0129,198.8981,527.7776,203.8334,522.8423,206.598,532.59,205.19" style="stroke:#A80036;stroke-width:1.0;"/><!--MD5=[90ff5104dbde44d43a33186439506cde]
link Reviewer1 to Solution1--><path codeLine="41" d="M233,137.36 C233,186.02 233,326.74 233,381.41 " fill="none" id="Reviewer1-to-Solution1" style="stroke:#A80036;stroke-width:1.0;"/><polygon fill="#A80036" points="233,386.73,237,377.73,233,381.73,229,377.73,233,386.73" style="stroke:#A80036;stroke-width:1.0;"/><!--MD5=[b2ce75b1af92bf412d88b323fb1f6945]
link Reviewer2 to Temary--><path codeLine="42" d="M845.76,131.75 C840.17,133.54 834.43,135.34 829,137 C745.84,162.36 647.37,189.95 596.41,204.04 " fill="none" id="Reviewer2-to-Temary" style="stroke:#A80036;stroke-width:1.0;stroke-dasharray:7.0,7.0;"/><polygon fill="#A80036" points="591.33,205.45,601.0698,206.9117,596.1498,204.1199,598.9416,199.1999,591.33,205.45" style="stroke:#A80036;stroke-width:1.0;"/><!--MD5=[fcee7c119a005378ededbbd9dba8f4b0]
link Reviewer2 to Solution2--><path codeLine="43" d="M880,137.36 C880,186.02 880,326.74 880,381.41 " fill="none" id="Reviewer2-to-Solution2" style="stroke:#A80036;stroke-width:1.0;"/><polygon fill="#A80036" points="880,386.73,884,377.73,880,381.73,876,377.73,880,386.73" style="stroke:#A80036;stroke-width:1.0;"/><!--MD5=[c1c30b0625011038ae596731682c3d59]
link Artist1 to Temary--><path codeLine="45" d="M89.58,481.84 C108.11,458.2 144.8,414.75 184,387 C298.88,305.68 458.49,248.62 527.71,226.13 " fill="none" id="Artist1-to-Temary" style="stroke:#A80036;stroke-width:1.0;stroke-dasharray:7.0,7.0;"/><polygon fill="#A80036" points="532.54,224.58,522.745,223.5517,527.7839,226.1225,525.213,231.1614,532.54,224.58" style="stroke:#A80036;stroke-width:1.0;"/><!--MD5=[709f9be456299554332a78d981141b68]
link Artist2 to Temary--><path codeLine="46" d="M252.49,481.73 C309.62,432.59 476.51,289.04 538.48,235.73 " fill="none" id="Artist2-to-Temary" style="stroke:#A80036;stroke-width:1.0;stroke-dasharray:7.0,7.0;"/><polygon fill="#A80036" points="542.4,232.36,532.975,235.2181,538.6168,235.6292,538.2057,241.2711,542.4,232.36" style="stroke:#A80036;stroke-width:1.0;"/><!--MD5=[8b52a556e383135ee1df8855efb0bc1f]
link Artist3 to Temary--><path codeLine="47" d="M857.62,491.09 C804.5,472.37 669.91,418.07 598,327 C577.14,300.58 568.21,261.73 564.5,237.55 " fill="none" id="Artist3-to-Temary" style="stroke:#A80036;stroke-width:1.0;stroke-dasharray:7.0,7.0;"/><polygon fill="#A80036" points="563.74,232.33,561.0645,241.8085,564.4531,237.2789,568.9827,240.6675,563.74,232.33" style="stroke:#A80036;stroke-width:1.0;"/><!--MD5=[990e79fc2c699c770c568693ccd9a606]
link Artist4 to Temary--><path codeLine="48" d="M1023.38,481.9 C1004.8,458.34 968.04,414.96 929,387 C817.83,307.37 663.82,249.77 596.18,226.67 " fill="none" id="Artist4-to-Temary" style="stroke:#A80036;stroke-width:1.0;stroke-dasharray:7.0,7.0;"/><polygon fill="#A80036" points="591.07,224.93,598.295,231.6232,595.8019,226.5454,600.8797,224.0522,591.07,224.93" style="stroke:#A80036;stroke-width:1.0;"/><!--MD5=[141ffd15d38e153c39e84b1d0610d082]
link Practice to Solution1--><path codeLine="50" d="M603.5932,320.0467 C603.5932,320.0467 356.66,375.65 277.09,393.57 " fill="none" id="Practice-Solution1" style="stroke:#A80036;stroke-width:1.0;"/><polygon fill="#A80036" points="264.19,396.48,273.8489,398.4048,269.0678,395.3814,272.0912,390.6003,264.19,396.48" style="stroke:#A80036;stroke-width:1.0;"/><line style="stroke:#A80036;stroke-width:1.0;" x1="269.0678" x2="276.87" y1="395.3814" y2="393.62"/><polygon fill="#A80036" points="615.3,317.41,608.5677,314.8261,603.5932,320.0467,610.3255,322.6306,615.3,317.41" style="stroke:#A80036;stroke-width:1.0;"/><!--MD5=[55eb0e219dec2234da63acd754e5ee11]
link Practice to Solution2--><path codeLine="51" d="M687.7426,327.0894 C687.7426,327.0894 794.15,369.38 836.3,386.13 " fill="none" id="Practice-Solution2" style="stroke:#A80036;stroke-width:1.0;"/><polygon fill="#A80036" points="848.65,391.04,841.762,384.0004,844.0031,389.1944,838.8091,391.4355,848.65,391.04" style="stroke:#A80036;stroke-width:1.0;"/><line style="stroke:#A80036;stroke-width:1.0;" x1="844.0031" x2="836.57" y1="389.1944" y2="386.24"/><polygon fill="#A80036" points="676.59,322.66,680.6898,328.5922,687.7426,327.0894,683.6428,321.1572,676.59,322.66" style="stroke:#A80036;stroke-width:1.0;"/><!--MD5=[02946e6882cb7801f6a379b80ed6e2b2]
link Solution1 to Artist1--><path codeLine="52" d="M194.805,428.2787 C194.805,428.2787 134.78,464.06 110.33,478.63 " fill="none" id="Solution1-Artist1" style="stroke:#A80036;stroke-width:1.0;"/><polygon fill="#A80036" points="99.11,485.32,108.8883,484.1435,103.4038,482.758,104.7892,477.2735,99.11,485.32" style="stroke:#A80036;stroke-width:1.0;"/><line style="stroke:#A80036;stroke-width:1.0;" x1="103.4038" x2="110.27" y1="482.758" y2="478.665"/><polygon fill="#A80036" points="205.11,422.13,197.9079,421.7693,194.805,428.2787,202.0071,428.6394,205.11,422.13" style="stroke:#A80036;stroke-width:1.0;"/><!--MD5=[3cc45a281d7c57cff1fcf01cb76dcf23]
link Solution1 to Artist2--><path codeLine="53" d="M233,434.13 C233,434.13 233,457.95 233,468.65 " fill="none" id="Solution1-Artist2" style="stroke:#A80036;stroke-width:1.0;"/><polygon fill="#A80036" points="233,481.7,237,472.7,233,476.7,229,472.7,233,481.7" style="stroke:#A80036;stroke-width:1.0;"/><line style="stroke:#A80036;stroke-width:1.0;" x1="233" x2="233" y1="476.7" y2="468.7"/><polygon fill="#A80036" points="233,422.13,229,428.13,233,434.13,237,428.13,233,422.13" style="stroke:#A80036;stroke-width:1.0;"/><!--MD5=[33002ff50034c44ed42a657caa86d14d]
link Solution2 to Artist3--><path codeLine="54" d="M880,434.13 C880,434.13 880,457.95 880,468.65 " fill="none" id="Solution2-Artist3" style="stroke:#A80036;stroke-width:1.0;"/><polygon fill="#A80036" points="880,481.7,884,472.7,880,476.7,876,472.7,880,481.7" style="stroke:#A80036;stroke-width:1.0;"/><line style="stroke:#A80036;stroke-width:1.0;" x1="880" x2="880" y1="476.7" y2="468.7"/><polygon fill="#A80036" points="880,422.13,876,428.13,880,434.13,884,428.13,880,422.13" style="stroke:#A80036;stroke-width:1.0;"/><!--MD5=[69f4c80eb946d14abbfb3bee8d1d4c85]
link Solution2 to Artist4--><path codeLine="55" d="M918.195,428.2787 C918.195,428.2787 978.22,464.06 1002.67,478.63 " fill="none" id="Solution2-Artist4" style="stroke:#A80036;stroke-width:1.0;"/><polygon fill="#A80036" points="1013.89,485.32,1008.2108,477.2735,1009.5962,482.758,1004.1117,484.1435,1013.89,485.32" style="stroke:#A80036;stroke-width:1.0;"/><line style="stroke:#A80036;stroke-width:1.0;" x1="1009.5962" x2="1002.73" y1="482.758" y2="478.665"/><polygon fill="#A80036" points="907.89,422.13,910.9929,428.6394,918.195,428.2787,915.0921,421.7693,907.89,422.13" style="stroke:#A80036;stroke-width:1.0;"/><!--MD5=[329b0e74d69db34f44bf3371937ddc04]
@startuml 7

object masterPDS
object "luis:Teacher" as luis
object ":Temary" as Temary
object ":Practice" as Practice
object ":Viewer" as Viewer1
object ":Viewer" as Viewer2
object ":Viewer" as Viewer3
object ":Viewer" as Viewer4
object ":Artist" as Artist1
object ":Artist" as Artist2
object ":Artist" as Artist3
object ":Artist" as Artist4
object ":Reviewer" as Reviewer1
object ":Reviewer" as Reviewer2
object ":Solution" as Solution1
object ":Solution" as Solution2

masterPDS *- -> luis
masterPDS *- -> Viewer1
masterPDS *- -> Viewer2
masterPDS *- -> Viewer3
masterPDS *- -> Viewer4
masterPDS *- -> Artist1
masterPDS *- -> Artist2
masterPDS *- -> Artist3
masterPDS *- -> Artist4
masterPDS *- -> Reviewer1
masterPDS *- -> Reviewer2
masterPDS *- -> Temary

Temary *- -> Practice

luis - -> Temary
Viewer1 ..> Temary
Viewer2 ..> Temary
Viewer3 ..> Temary
Viewer4 ..> Temary

Reviewer1 ..> Temary
Reviewer1 - -> Solution1
Reviewer2 ..> Temary
Reviewer2 - -> Solution2

Artist1 ..> Temary
Artist2 ..> Temary
Artist3 ..> Temary
Artist4 ..> Temary

Practice *- -> Solution1
Practice *- -> Solution2
Solution1 *- -> Artist1
Solution1 *- -> Artist2
Solution2 *- -> Artist3
Solution2 *- -> Artist4
@enduml

PlantUML version 1.2022.0(Tue Jan 11 17:16:42 CET 2022)
(GPL source distribution)
Java Runtime: OpenJDK Runtime Environment
JVM: OpenJDK 64-Bit Server VM
Default Encoding: Cp1252
Language: es
Country: ES
--></g></svg>