<?xml version="1.0" encoding="UTF-8" standalone="no"?><svg xmlns="http://www.w3.org/2000/svg" xmlns:xlink="http://www.w3.org/1999/xlink" contentScriptType="application/ecmascript" contentStyleType="text/css" height="380px" preserveAspectRatio="none" style="width:456px;height:380px;background:#FFFFFF;" version="1.1" viewBox="0 0 456 380" width="456px" zoomAndPan="magnify"><defs><filter height="300%" id="f15m55c168f5u0" width="300%" x="-1" y="-1"><feGaussianBlur result="blurOut" stdDeviation="2.0"/><feColorMatrix in="blurOut" result="blurOut2" type="matrix" values="0 0 0 0 0 0 0 0 0 0 0 0 0 0 0 0 0 0 .4 0"/><feOffset dx="4.0" dy="4.0" in="blurOut2" result="blurOut3"/><feBlend in="SourceGraphic" in2="blurOut3" mode="normal"/></filter></defs><g><!--MD5=[b00a65b0137c7f9f9bb7910344c3446c]
entity class diagram--><ellipse cx="406" cy="14" fill="#FEFECE" filter="url(#f15m55c168f5u0)" rx="8" ry="8" style="stroke:#A80036;stroke-width:1.5;"/><path d="M406,22 L406,49 M393,30 L419,30 M406,49 L393,64 M406,49 L419,64 " fill="none" filter="url(#f15m55c168f5u0)" style="stroke:#A80036;stroke-width:1.5;"/><text fill="#000000" font-family="sans-serif" font-size="14" lengthAdjust="spacing" textLength="87" x="362.5" y="84.0332">class diagram</text><!--MD5=[acc1c9f796b03938ff980b57cdceee9c]
entity Class--><ellipse cx="186" cy="14" fill="#FEFECE" filter="url(#f15m55c168f5u0)" rx="8" ry="8" style="stroke:#A80036;stroke-width:1.5;"/><path d="M186,22 L186,49 M173,30 L199,30 M186,49 L173,64 M186,49 L199,64 " fill="none" filter="url(#f15m55c168f5u0)" style="stroke:#A80036;stroke-width:1.5;"/><text fill="#000000" font-family="sans-serif" font-size="14" lengthAdjust="spacing" textLength="35" x="168.5" y="84.0332">Class</text><!--MD5=[393655ea98b8cc7762ecac08ac25a8bc]
entity Unit--><ellipse cx="115" cy="158" fill="#FEFECE" filter="url(#f15m55c168f5u0)" rx="8" ry="8" style="stroke:#A80036;stroke-width:1.5;"/><path d="M115,166 L115,193 M102,174 L128,174 M115,193 L102,208 M115,193 L128,208 " fill="none" filter="url(#f15m55c168f5u0)" style="stroke:#A80036;stroke-width:1.5;"/><text fill="#000000" font-family="sans-serif" font-size="14" lengthAdjust="spacing" textLength="24" x="103" y="228.0332">Unit</text><!--MD5=[00315bd5ac217105c26aef39d2487cc0]
entity Master--><ellipse cx="186" cy="158" fill="#FEFECE" filter="url(#f15m55c168f5u0)" rx="8" ry="8" style="stroke:#A80036;stroke-width:1.5;"/><path d="M186,166 L186,193 M173,174 L199,174 M186,193 L173,208 M186,193 L199,208 " fill="none" filter="url(#f15m55c168f5u0)" style="stroke:#A80036;stroke-width:1.5;"/><text fill="#000000" font-family="sans-serif" font-size="14" lengthAdjust="spacing" textLength="43" x="164.5" y="228.0332">Master</text><!--MD5=[ce82acdddc6a31e3ada828ac08ca2f4b]
entity Cordinator--><ellipse cx="276" cy="158" fill="#FEFECE" filter="url(#f15m55c168f5u0)" rx="8" ry="8" style="stroke:#A80036;stroke-width:1.5;"/><path d="M276,166 L276,193 M263,174 L289,174 M276,193 L263,208 M276,193 L289,208 " fill="none" filter="url(#f15m55c168f5u0)" style="stroke:#A80036;stroke-width:1.5;"/><text fill="#000000" font-family="sans-serif" font-size="14" lengthAdjust="spacing" textLength="67" x="242.5" y="228.0332">Cordinator</text><!--MD5=[494c489cc4328319247ec2e1625e02a3]
entity Student--><ellipse cx="303" cy="14" fill="#FEFECE" filter="url(#f15m55c168f5u0)" rx="8" ry="8" style="stroke:#A80036;stroke-width:1.5;"/><path d="M303,22 L303,49 M290,30 L316,30 M303,49 L290,64 M303,49 L316,64 " fill="none" filter="url(#f15m55c168f5u0)" style="stroke:#A80036;stroke-width:1.5;"/><text fill="#000000" font-family="sans-serif" font-size="14" lengthAdjust="spacing" textLength="49" x="278.5" y="84.0332">Student</text><!--MD5=[ec12e68d482471526d41adfe4cff0e6f]
entity Session--><ellipse cx="31" cy="302" fill="#FEFECE" filter="url(#f15m55c168f5u0)" rx="8" ry="8" style="stroke:#A80036;stroke-width:1.5;"/><path d="M31,310 L31,337 M18,318 L44,318 M31,337 L18,352 M31,337 L44,352 " fill="none" filter="url(#f15m55c168f5u0)" style="stroke:#A80036;stroke-width:1.5;"/><text fill="#000000" font-family="sans-serif" font-size="14" lengthAdjust="spacing" textLength="50" x="6" y="372.0332">Session</text><!--MD5=[ffb4abf39fd4bf3bdd18b8a9bd632388]
entity Proyect--><ellipse cx="115" cy="302" fill="#FEFECE" filter="url(#f15m55c168f5u0)" rx="8" ry="8" style="stroke:#A80036;stroke-width:1.5;"/><path d="M115,310 L115,337 M102,318 L128,318 M115,337 L102,352 M115,337 L128,352 " fill="none" filter="url(#f15m55c168f5u0)" style="stroke:#A80036;stroke-width:1.5;"/><text fill="#000000" font-family="sans-serif" font-size="14" lengthAdjust="spacing" textLength="48" x="91" y="372.0332">Proyect</text><!--MD5=[98a37515a777bf8f5d7ec9e651414502]
entity Exam--><ellipse cx="191" cy="302" fill="#FEFECE" filter="url(#f15m55c168f5u0)" rx="8" ry="8" style="stroke:#A80036;stroke-width:1.5;"/><path d="M191,310 L191,337 M178,318 L204,318 M191,337 L178,352 M191,337 L204,352 " fill="none" filter="url(#f15m55c168f5u0)" style="stroke:#A80036;stroke-width:1.5;"/><text fill="#000000" font-family="sans-serif" font-size="14" lengthAdjust="spacing" textLength="34" x="174" y="372.0332">Exam</text><!--MD5=[1983a42cf5b13dcf1e77742440a4ad76]
reverse link Class to Unit--><path d="M162.63,93.74 C151.78,115.44 139.22,140.57 129.72,159.57 " fill="none" id="Class-backto-Unit" style="stroke:#A80036;stroke-width:1.0;"/><polygon fill="#A80036" points="168.45,82.1,162.189,85.6777,163.0834,92.8331,169.3444,89.2554,168.45,82.1" style="stroke:#A80036;stroke-width:1.0;"/><!--MD5=[85c72b87b71e30d73087b251dd797773]
reverse link Class to Master--><path d="M186,101.08 C186,116.75 186,133.6 186,148.3 " fill="none" id="Class-backto-Master" style="stroke:#A80036;stroke-width:1.0;"/><polygon fill="#A80036" points="186,87.69,182,93.69,186,99.69,190,93.69,186,87.69" style="stroke:#A80036;stroke-width:1.0;"/><!--MD5=[b3853664f6e700e01df440a1bcabbbee]
reverse link Class to Cordinator--><path d="M210.67,85.92 C222.97,105.34 237.85,128.81 250.3,148.45 " fill="none" id="Class-backto-Cordinator" style="stroke:#A80036;stroke-width:1.0;"/><polygon fill="#A80036" points="203.57,74.72,203.4008,81.9291,209.9903,84.858,210.1595,77.6489,203.57,74.72" style="stroke:#A80036;stroke-width:1.0;"/><!--MD5=[1179478d0133ea5a7d6e7ca3cae8bd23]
reverse link Class to Student--><path d="M208.65,46 C228.68,46 257.84,46 278.42,46 " fill="none" id="Class-backto-Student" style="stroke:#A80036;stroke-width:1.0;"/><polygon fill="#A80036" points="203.52,46,212.52,50,208.52,46,212.52,42,203.52,46" style="stroke:#A80036;stroke-width:1.0;"/><polygon fill="#000000" points="221,34.1758,230.0451,37.1147,230.0451,31.2369,221,34.1758" style="stroke:#000000;stroke-width:1.0;"/><text fill="#000000" font-family="sans-serif" font-size="13" lengthAdjust="spacing" textLength="25" x="235" y="39.4951">take</text><!--MD5=[9513f6741b70b5def50d7bf256067379]
reverse link Unit to Session--><path d="M93.63,227.13 C81.84,247.05 67.17,271.85 54.99,292.44 " fill="none" id="Unit-backto-Session" style="stroke:#A80036;stroke-width:1.0;"/><polygon fill="#A80036" points="100.37,215.73,93.8747,218.8623,94.2679,226.0627,100.7632,222.9304,100.37,215.73" style="stroke:#A80036;stroke-width:1.0;"/><!--MD5=[8233c399b0f6ac44891a7e412b6bccc8]
reverse link Unit to Proyect--><path d="M115,245.08 C115,260.75 115,277.6 115,292.3 " fill="none" id="Unit-backto-Proyect" style="stroke:#A80036;stroke-width:1.0;"/><polygon fill="#A80036" points="115,231.69,111,237.69,115,243.69,119,237.69,115,231.69" style="stroke:#A80036;stroke-width:1.0;"/><!--MD5=[1357ec3d5761959d91d9575d3c705f7d]
reverse link Unit to Exam--><path d="M135.95,230.14 C147.88,252.43 162.64,280 173.87,300.99 " fill="none" id="Unit-backto-Exam" style="stroke:#A80036;stroke-width:1.0;"/><polygon fill="#A80036" points="129.65,218.38,128.9599,225.558,135.3203,228.9558,136.0104,221.7778,129.65,218.38" style="stroke:#A80036;stroke-width:1.0;"/><!--MD5=[5cee7c593bca6b4d70df8c2a11870d81]
@startuml 4
"class diagram"
    Class *- - Unit
    Class *- - Master
    Class *- - Cordinator
    Class <- Student : take <

    Unit *- - Session
    Unit *- - Proyect
    Unit *- - Exam

@enduml

PlantUML version 1.2022.0(Tue Jan 11 17:16:42 CET 2022)
(GPL source distribution)
Java Runtime: OpenJDK Runtime Environment
JVM: OpenJDK 64-Bit Server VM
Default Encoding: Cp1252
Language: es
Country: ES
--></g></svg>