<?xml version="1.0" encoding="UTF-8" standalone="no"?><svg xmlns="http://www.w3.org/2000/svg" xmlns:xlink="http://www.w3.org/1999/xlink" contentScriptType="application/ecmascript" contentStyleType="text/css" height="695px" preserveAspectRatio="none" style="width:595px;height:695px;background:#FFFFFF;" version="1.1" viewBox="0 0 595 695" width="595px" zoomAndPan="magnify"><defs><filter height="300%" id="f1w8n1jc1yldg7" width="300%" x="-1" y="-1"><feGaussianBlur result="blurOut" stdDeviation="2.0"/><feColorMatrix in="blurOut" result="blurOut2" type="matrix" values="0 0 0 0 0 0 0 0 0 0 0 0 0 0 0 0 0 0 .4 0"/><feOffset dx="4.0" dy="4.0" in="blurOut2" result="blurOut3"/><feBlend in="SourceGraphic" in2="blurOut3" mode="normal"/></filter></defs><g><!--MD5=[7751eee19cc24abe3e8e6eb28c2b5e73]
class MasterProgramacionYDiseñoSoftware--><rect fill="#FEFECE" filter="url(#f1w8n1jc1yldg7)" height="48" id="MasterProgramacionYDiseñoSoftware" style="stroke:#A80036;stroke-width:1.5;" width="242" x="20.5" y="7"/><ellipse cx="35.5" cy="23" fill="#ADD1B2" rx="11" ry="11" style="stroke:#A80036;stroke-width:1.0;"/><path d="M38.2656,18.875 Q38.4219,18.6563 38.6094,18.5469 Q38.7969,18.4375 39.0156,18.4375 Q39.3906,18.4375 39.625,18.7031 Q39.8594,18.9531 39.8594,19.5625 L39.8594,21.0156 Q39.8594,21.625 39.625,21.8906 Q39.3906,22.1563 39.0156,22.1563 Q38.6719,22.1563 38.4688,21.9531 Q38.2656,21.7656 38.1563,21.25 Q38.1094,20.8906 37.9219,20.7031 Q37.5938,20.3281 36.9844,20.1094 Q36.375,19.8906 35.75,19.8906 Q34.9844,19.8906 34.3438,20.2188 Q33.7188,20.5469 33.2188,21.2969 Q32.7344,22.0469 32.7344,23.0781 L32.7344,24.1719 Q32.7344,25.4063 33.625,26.2344 Q34.5156,27.0469 36.1094,27.0469 Q37.0469,27.0469 37.7031,26.7969 Q38.0938,26.6406 38.5156,26.2031 Q38.7813,25.9375 38.9219,25.8594 Q39.0781,25.7813 39.2813,25.7813 Q39.6094,25.7813 39.8594,26.0469 Q40.125,26.2969 40.125,26.6406 Q40.125,26.9844 39.7813,27.3906 Q39.2813,27.9688 38.4844,28.2969 Q37.4063,28.75 36.1094,28.75 Q34.5938,28.75 33.3906,28.125 Q32.4063,27.625 31.7188,26.5625 Q31.0313,25.4844 31.0313,24.2031 L31.0313,23.0469 Q31.0313,21.7188 31.6406,20.5781 Q32.2656,19.4219 33.3594,18.8125 Q34.4531,18.1875 35.6875,18.1875 Q36.4219,18.1875 37.0625,18.3594 Q37.7188,18.5156 38.2656,18.875 Z " fill="#000000"/><text fill="#000000" font-family="sans-serif" font-size="12" lengthAdjust="spacing" textLength="210" x="49.5" y="27.9102">MasterProgramacionYDiseñoSoftware</text><line style="stroke:#A80036;stroke-width:1.5;" x1="21.5" x2="261.5" y1="39" y2="39"/><line style="stroke:#A80036;stroke-width:1.5;" x1="21.5" x2="261.5" y1="47" y2="47"/><!--MD5=[b887cf1b6732c2da6b2473101c66933d]
class Alumno--><rect fill="#FEFECE" filter="url(#f1w8n1jc1yldg7)" height="48" id="Alumno" style="stroke:#A80036;stroke-width:1.5;" width="74" x="325.5" y="133"/><ellipse cx="340.5" cy="149" fill="#ADD1B2" rx="11" ry="11" style="stroke:#A80036;stroke-width:1.0;"/><path d="M343.2656,144.875 Q343.4219,144.6563 343.6094,144.5469 Q343.7969,144.4375 344.0156,144.4375 Q344.3906,144.4375 344.625,144.7031 Q344.8594,144.9531 344.8594,145.5625 L344.8594,147.0156 Q344.8594,147.625 344.625,147.8906 Q344.3906,148.1563 344.0156,148.1563 Q343.6719,148.1563 343.4688,147.9531 Q343.2656,147.7656 343.1563,147.25 Q343.1094,146.8906 342.9219,146.7031 Q342.5938,146.3281 341.9844,146.1094 Q341.375,145.8906 340.75,145.8906 Q339.9844,145.8906 339.3438,146.2188 Q338.7188,146.5469 338.2188,147.2969 Q337.7344,148.0469 337.7344,149.0781 L337.7344,150.1719 Q337.7344,151.4063 338.625,152.2344 Q339.5156,153.0469 341.1094,153.0469 Q342.0469,153.0469 342.7031,152.7969 Q343.0938,152.6406 343.5156,152.2031 Q343.7813,151.9375 343.9219,151.8594 Q344.0781,151.7813 344.2813,151.7813 Q344.6094,151.7813 344.8594,152.0469 Q345.125,152.2969 345.125,152.6406 Q345.125,152.9844 344.7813,153.3906 Q344.2813,153.9688 343.4844,154.2969 Q342.4063,154.75 341.1094,154.75 Q339.5938,154.75 338.3906,154.125 Q337.4063,153.625 336.7188,152.5625 Q336.0313,151.4844 336.0313,150.2031 L336.0313,149.0469 Q336.0313,147.7188 336.6406,146.5781 Q337.2656,145.4219 338.3594,144.8125 Q339.4531,144.1875 340.6875,144.1875 Q341.4219,144.1875 342.0625,144.3594 Q342.7188,144.5156 343.2656,144.875 Z " fill="#000000"/><text fill="#000000" font-family="sans-serif" font-size="12" lengthAdjust="spacing" textLength="42" x="354.5" y="153.9102">Alumno</text><line style="stroke:#A80036;stroke-width:1.5;" x1="326.5" x2="398.5" y1="165" y2="165"/><line style="stroke:#A80036;stroke-width:1.5;" x1="326.5" x2="398.5" y1="173" y2="173"/><!--MD5=[96b1d8fe28f8b08e7589189a37449bcf]
class Unidad--><rect fill="#FEFECE" filter="url(#f1w8n1jc1yldg7)" height="48" id="Unidad" style="stroke:#A80036;stroke-width:1.5;" width="72" x="175.5" y="398"/><ellipse cx="190.5" cy="414" fill="#ADD1B2" rx="11" ry="11" style="stroke:#A80036;stroke-width:1.0;"/><path d="M193.2656,409.875 Q193.4219,409.6563 193.6094,409.5469 Q193.7969,409.4375 194.0156,409.4375 Q194.3906,409.4375 194.625,409.7031 Q194.8594,409.9531 194.8594,410.5625 L194.8594,412.0156 Q194.8594,412.625 194.625,412.8906 Q194.3906,413.1563 194.0156,413.1563 Q193.6719,413.1563 193.4688,412.9531 Q193.2656,412.7656 193.1563,412.25 Q193.1094,411.8906 192.9219,411.7031 Q192.5938,411.3281 191.9844,411.1094 Q191.375,410.8906 190.75,410.8906 Q189.9844,410.8906 189.3438,411.2188 Q188.7188,411.5469 188.2188,412.2969 Q187.7344,413.0469 187.7344,414.0781 L187.7344,415.1719 Q187.7344,416.4063 188.625,417.2344 Q189.5156,418.0469 191.1094,418.0469 Q192.0469,418.0469 192.7031,417.7969 Q193.0938,417.6406 193.5156,417.2031 Q193.7813,416.9375 193.9219,416.8594 Q194.0781,416.7813 194.2813,416.7813 Q194.6094,416.7813 194.8594,417.0469 Q195.125,417.2969 195.125,417.6406 Q195.125,417.9844 194.7813,418.3906 Q194.2813,418.9688 193.4844,419.2969 Q192.4063,419.75 191.1094,419.75 Q189.5938,419.75 188.3906,419.125 Q187.4063,418.625 186.7188,417.5625 Q186.0313,416.4844 186.0313,415.2031 L186.0313,414.0469 Q186.0313,412.7188 186.6406,411.5781 Q187.2656,410.4219 188.3594,409.8125 Q189.4531,409.1875 190.6875,409.1875 Q191.4219,409.1875 192.0625,409.3594 Q192.7188,409.5156 193.2656,409.875 Z " fill="#000000"/><text fill="#000000" font-family="sans-serif" font-size="12" lengthAdjust="spacing" textLength="40" x="204.5" y="418.9102">Unidad</text><line style="stroke:#A80036;stroke-width:1.5;" x1="176.5" x2="246.5" y1="430" y2="430"/><line style="stroke:#A80036;stroke-width:1.5;" x1="176.5" x2="246.5" y1="438" y2="438"/><!--MD5=[dd3b13c530c963ada90a48d1c3f4bdb3]
class Profesor--><rect fill="#FEFECE" filter="url(#f1w8n1jc1yldg7)" height="48" id="Profesor" style="stroke:#A80036;stroke-width:1.5;" width="79" x="7" y="211"/><ellipse cx="22" cy="227" fill="#ADD1B2" rx="11" ry="11" style="stroke:#A80036;stroke-width:1.0;"/><path d="M24.7656,222.875 Q24.9219,222.6563 25.1094,222.5469 Q25.2969,222.4375 25.5156,222.4375 Q25.8906,222.4375 26.125,222.7031 Q26.3594,222.9531 26.3594,223.5625 L26.3594,225.0156 Q26.3594,225.625 26.125,225.8906 Q25.8906,226.1563 25.5156,226.1563 Q25.1719,226.1563 24.9688,225.9531 Q24.7656,225.7656 24.6563,225.25 Q24.6094,224.8906 24.4219,224.7031 Q24.0938,224.3281 23.4844,224.1094 Q22.875,223.8906 22.25,223.8906 Q21.4844,223.8906 20.8438,224.2188 Q20.2188,224.5469 19.7188,225.2969 Q19.2344,226.0469 19.2344,227.0781 L19.2344,228.1719 Q19.2344,229.4063 20.125,230.2344 Q21.0156,231.0469 22.6094,231.0469 Q23.5469,231.0469 24.2031,230.7969 Q24.5938,230.6406 25.0156,230.2031 Q25.2813,229.9375 25.4219,229.8594 Q25.5781,229.7813 25.7813,229.7813 Q26.1094,229.7813 26.3594,230.0469 Q26.625,230.2969 26.625,230.6406 Q26.625,230.9844 26.2813,231.3906 Q25.7813,231.9688 24.9844,232.2969 Q23.9063,232.75 22.6094,232.75 Q21.0938,232.75 19.8906,232.125 Q18.9063,231.625 18.2188,230.5625 Q17.5313,229.4844 17.5313,228.2031 L17.5313,227.0469 Q17.5313,225.7188 18.1406,224.5781 Q18.7656,223.4219 19.8594,222.8125 Q20.9531,222.1875 22.1875,222.1875 Q22.9219,222.1875 23.5625,222.3594 Q24.2188,222.5156 24.7656,222.875 Z " fill="#000000"/><text fill="#000000" font-family="sans-serif" font-size="12" lengthAdjust="spacing" textLength="47" x="36" y="231.9102">Profesor</text><line style="stroke:#A80036;stroke-width:1.5;" x1="8" x2="85" y1="243" y2="243"/><line style="stroke:#A80036;stroke-width:1.5;" x1="8" x2="85" y1="251" y2="251"/><!--MD5=[307605b81a23d8723fddfe197c0086aa]
class Teoria--><rect fill="#FEFECE" filter="url(#f1w8n1jc1yldg7)" height="48" id="Teoria" style="stroke:#A80036;stroke-width:1.5;" width="67" x="232" y="507"/><ellipse cx="247" cy="523" fill="#ADD1B2" rx="11" ry="11" style="stroke:#A80036;stroke-width:1.0;"/><path d="M249.7656,518.875 Q249.9219,518.6563 250.1094,518.5469 Q250.2969,518.4375 250.5156,518.4375 Q250.8906,518.4375 251.125,518.7031 Q251.3594,518.9531 251.3594,519.5625 L251.3594,521.0156 Q251.3594,521.625 251.125,521.8906 Q250.8906,522.1563 250.5156,522.1563 Q250.1719,522.1563 249.9688,521.9531 Q249.7656,521.7656 249.6563,521.25 Q249.6094,520.8906 249.4219,520.7031 Q249.0938,520.3281 248.4844,520.1094 Q247.875,519.8906 247.25,519.8906 Q246.4844,519.8906 245.8438,520.2188 Q245.2188,520.5469 244.7188,521.2969 Q244.2344,522.0469 244.2344,523.0781 L244.2344,524.1719 Q244.2344,525.4063 245.125,526.2344 Q246.0156,527.0469 247.6094,527.0469 Q248.5469,527.0469 249.2031,526.7969 Q249.5938,526.6406 250.0156,526.2031 Q250.2813,525.9375 250.4219,525.8594 Q250.5781,525.7813 250.7813,525.7813 Q251.1094,525.7813 251.3594,526.0469 Q251.625,526.2969 251.625,526.6406 Q251.625,526.9844 251.2813,527.3906 Q250.7813,527.9688 249.9844,528.2969 Q248.9063,528.75 247.6094,528.75 Q246.0938,528.75 244.8906,528.125 Q243.9063,527.625 243.2188,526.5625 Q242.5313,525.4844 242.5313,524.2031 L242.5313,523.0469 Q242.5313,521.7188 243.1406,520.5781 Q243.7656,519.4219 244.8594,518.8125 Q245.9531,518.1875 247.1875,518.1875 Q247.9219,518.1875 248.5625,518.3594 Q249.2188,518.5156 249.7656,518.875 Z " fill="#000000"/><text fill="#000000" font-family="sans-serif" font-size="12" lengthAdjust="spacing" textLength="35" x="261" y="527.9102">Teoria</text><line style="stroke:#A80036;stroke-width:1.5;" x1="233" x2="298" y1="539" y2="539"/><line style="stroke:#A80036;stroke-width:1.5;" x1="233" x2="298" y1="547" y2="547"/><!--MD5=[7d23631c3f8ffd6cb22c8049e5cabc52]
class Practica--><rect fill="#FEFECE" filter="url(#f1w8n1jc1yldg7)" height="48" id="Practica" style="stroke:#A80036;stroke-width:1.5;" width="76" x="334.5" y="507"/><ellipse cx="349.5" cy="523" fill="#ADD1B2" rx="11" ry="11" style="stroke:#A80036;stroke-width:1.0;"/><path d="M352.2656,518.875 Q352.4219,518.6563 352.6094,518.5469 Q352.7969,518.4375 353.0156,518.4375 Q353.3906,518.4375 353.625,518.7031 Q353.8594,518.9531 353.8594,519.5625 L353.8594,521.0156 Q353.8594,521.625 353.625,521.8906 Q353.3906,522.1563 353.0156,522.1563 Q352.6719,522.1563 352.4688,521.9531 Q352.2656,521.7656 352.1563,521.25 Q352.1094,520.8906 351.9219,520.7031 Q351.5938,520.3281 350.9844,520.1094 Q350.375,519.8906 349.75,519.8906 Q348.9844,519.8906 348.3438,520.2188 Q347.7188,520.5469 347.2188,521.2969 Q346.7344,522.0469 346.7344,523.0781 L346.7344,524.1719 Q346.7344,525.4063 347.625,526.2344 Q348.5156,527.0469 350.1094,527.0469 Q351.0469,527.0469 351.7031,526.7969 Q352.0938,526.6406 352.5156,526.2031 Q352.7813,525.9375 352.9219,525.8594 Q353.0781,525.7813 353.2813,525.7813 Q353.6094,525.7813 353.8594,526.0469 Q354.125,526.2969 354.125,526.6406 Q354.125,526.9844 353.7813,527.3906 Q353.2813,527.9688 352.4844,528.2969 Q351.4063,528.75 350.1094,528.75 Q348.5938,528.75 347.3906,528.125 Q346.4063,527.625 345.7188,526.5625 Q345.0313,525.4844 345.0313,524.2031 L345.0313,523.0469 Q345.0313,521.7188 345.6406,520.5781 Q346.2656,519.4219 347.3594,518.8125 Q348.4531,518.1875 349.6875,518.1875 Q350.4219,518.1875 351.0625,518.3594 Q351.7188,518.5156 352.2656,518.875 Z " fill="#000000"/><text fill="#000000" font-family="sans-serif" font-size="12" lengthAdjust="spacing" textLength="44" x="363.5" y="527.9102">Practica</text><line style="stroke:#A80036;stroke-width:1.5;" x1="335.5" x2="409.5" y1="539" y2="539"/><line style="stroke:#A80036;stroke-width:1.5;" x1="335.5" x2="409.5" y1="547" y2="547"/><!--MD5=[69268330f0a536610f2ee0ac17577904]
class Examen--><rect fill="#FEFECE" filter="url(#f1w8n1jc1yldg7)" height="48" id="Examen" style="stroke:#A80036;stroke-width:1.5;" width="77" x="120" y="507"/><ellipse cx="135" cy="523" fill="#ADD1B2" rx="11" ry="11" style="stroke:#A80036;stroke-width:1.0;"/><path d="M137.7656,518.875 Q137.9219,518.6563 138.1094,518.5469 Q138.2969,518.4375 138.5156,518.4375 Q138.8906,518.4375 139.125,518.7031 Q139.3594,518.9531 139.3594,519.5625 L139.3594,521.0156 Q139.3594,521.625 139.125,521.8906 Q138.8906,522.1563 138.5156,522.1563 Q138.1719,522.1563 137.9688,521.9531 Q137.7656,521.7656 137.6563,521.25 Q137.6094,520.8906 137.4219,520.7031 Q137.0938,520.3281 136.4844,520.1094 Q135.875,519.8906 135.25,519.8906 Q134.4844,519.8906 133.8438,520.2188 Q133.2188,520.5469 132.7188,521.2969 Q132.2344,522.0469 132.2344,523.0781 L132.2344,524.1719 Q132.2344,525.4063 133.125,526.2344 Q134.0156,527.0469 135.6094,527.0469 Q136.5469,527.0469 137.2031,526.7969 Q137.5938,526.6406 138.0156,526.2031 Q138.2813,525.9375 138.4219,525.8594 Q138.5781,525.7813 138.7813,525.7813 Q139.1094,525.7813 139.3594,526.0469 Q139.625,526.2969 139.625,526.6406 Q139.625,526.9844 139.2813,527.3906 Q138.7813,527.9688 137.9844,528.2969 Q136.9063,528.75 135.6094,528.75 Q134.0938,528.75 132.8906,528.125 Q131.9063,527.625 131.2188,526.5625 Q130.5313,525.4844 130.5313,524.2031 L130.5313,523.0469 Q130.5313,521.7188 131.1406,520.5781 Q131.7656,519.4219 132.8594,518.8125 Q133.9531,518.1875 135.1875,518.1875 Q135.9219,518.1875 136.5625,518.3594 Q137.2188,518.5156 137.7656,518.875 Z " fill="#000000"/><text fill="#000000" font-family="sans-serif" font-size="12" lengthAdjust="spacing" textLength="45" x="149" y="527.9102">Examen</text><line style="stroke:#A80036;stroke-width:1.5;" x1="121" x2="196" y1="539" y2="539"/><line style="stroke:#A80036;stroke-width:1.5;" x1="121" x2="196" y1="547" y2="547"/><!--MD5=[e162eb30546c456b77941eeefe267a06]
class Espectador--><rect fill="#FEFECE" filter="url(#f1w8n1jc1yldg7)" height="48" id="Espectador" style="stroke:#A80036;stroke-width:1.5;" width="95" x="315" y="289"/><ellipse cx="330" cy="305" fill="#ADD1B2" rx="11" ry="11" style="stroke:#A80036;stroke-width:1.0;"/><path d="M332.7656,300.875 Q332.9219,300.6563 333.1094,300.5469 Q333.2969,300.4375 333.5156,300.4375 Q333.8906,300.4375 334.125,300.7031 Q334.3594,300.9531 334.3594,301.5625 L334.3594,303.0156 Q334.3594,303.625 334.125,303.8906 Q333.8906,304.1563 333.5156,304.1563 Q333.1719,304.1563 332.9688,303.9531 Q332.7656,303.7656 332.6563,303.25 Q332.6094,302.8906 332.4219,302.7031 Q332.0938,302.3281 331.4844,302.1094 Q330.875,301.8906 330.25,301.8906 Q329.4844,301.8906 328.8438,302.2188 Q328.2188,302.5469 327.7188,303.2969 Q327.2344,304.0469 327.2344,305.0781 L327.2344,306.1719 Q327.2344,307.4063 328.125,308.2344 Q329.0156,309.0469 330.6094,309.0469 Q331.5469,309.0469 332.2031,308.7969 Q332.5938,308.6406 333.0156,308.2031 Q333.2813,307.9375 333.4219,307.8594 Q333.5781,307.7813 333.7813,307.7813 Q334.1094,307.7813 334.3594,308.0469 Q334.625,308.2969 334.625,308.6406 Q334.625,308.9844 334.2813,309.3906 Q333.7813,309.9688 332.9844,310.2969 Q331.9063,310.75 330.6094,310.75 Q329.0938,310.75 327.8906,310.125 Q326.9063,309.625 326.2188,308.5625 Q325.5313,307.4844 325.5313,306.2031 L325.5313,305.0469 Q325.5313,303.7188 326.1406,302.5781 Q326.7656,301.4219 327.8594,300.8125 Q328.9531,300.1875 330.1875,300.1875 Q330.9219,300.1875 331.5625,300.3594 Q332.2188,300.5156 332.7656,300.875 Z " fill="#000000"/><text fill="#000000" font-family="sans-serif" font-size="12" lengthAdjust="spacing" textLength="63" x="344" y="309.9102">Espectador</text><line style="stroke:#A80036;stroke-width:1.5;" x1="316" x2="409" y1="321" y2="321"/><line style="stroke:#A80036;stroke-width:1.5;" x1="316" x2="409" y1="329" y2="329"/><!--MD5=[70956c9b0a480da294331bfe4769ea93]
class Critico--><rect fill="#FEFECE" filter="url(#f1w8n1jc1yldg7)" height="48" id="Critico" style="stroke:#A80036;stroke-width:1.5;" width="67" x="339" y="633"/><ellipse cx="354" cy="649" fill="#ADD1B2" rx="11" ry="11" style="stroke:#A80036;stroke-width:1.0;"/><path d="M356.7656,644.875 Q356.9219,644.6563 357.1094,644.5469 Q357.2969,644.4375 357.5156,644.4375 Q357.8906,644.4375 358.125,644.7031 Q358.3594,644.9531 358.3594,645.5625 L358.3594,647.0156 Q358.3594,647.625 358.125,647.8906 Q357.8906,648.1563 357.5156,648.1563 Q357.1719,648.1563 356.9688,647.9531 Q356.7656,647.7656 356.6563,647.25 Q356.6094,646.8906 356.4219,646.7031 Q356.0938,646.3281 355.4844,646.1094 Q354.875,645.8906 354.25,645.8906 Q353.4844,645.8906 352.8438,646.2188 Q352.2188,646.5469 351.7188,647.2969 Q351.2344,648.0469 351.2344,649.0781 L351.2344,650.1719 Q351.2344,651.4063 352.125,652.2344 Q353.0156,653.0469 354.6094,653.0469 Q355.5469,653.0469 356.2031,652.7969 Q356.5938,652.6406 357.0156,652.2031 Q357.2813,651.9375 357.4219,651.8594 Q357.5781,651.7813 357.7813,651.7813 Q358.1094,651.7813 358.3594,652.0469 Q358.625,652.2969 358.625,652.6406 Q358.625,652.9844 358.2813,653.3906 Q357.7813,653.9688 356.9844,654.2969 Q355.9063,654.75 354.6094,654.75 Q353.0938,654.75 351.8906,654.125 Q350.9063,653.625 350.2188,652.5625 Q349.5313,651.4844 349.5313,650.2031 L349.5313,649.0469 Q349.5313,647.7188 350.1406,646.5781 Q350.7656,645.4219 351.8594,644.8125 Q352.9531,644.1875 354.1875,644.1875 Q354.9219,644.1875 355.5625,644.3594 Q356.2188,644.5156 356.7656,644.875 Z " fill="#000000"/><text fill="#000000" font-family="sans-serif" font-size="12" lengthAdjust="spacing" textLength="35" x="368" y="653.9102">Critico</text><line style="stroke:#A80036;stroke-width:1.5;" x1="340" x2="405" y1="665" y2="665"/><line style="stroke:#A80036;stroke-width:1.5;" x1="340" x2="405" y1="673" y2="673"/><!--MD5=[8cfbe2a3074fe86ae86257ec7efa02a3]
class Artista--><rect fill="#FEFECE" filter="url(#f1w8n1jc1yldg7)" height="48" id="Artista" style="stroke:#A80036;stroke-width:1.5;" width="66" x="479.5" y="633"/><ellipse cx="494.5" cy="649" fill="#ADD1B2" rx="11" ry="11" style="stroke:#A80036;stroke-width:1.0;"/><path d="M497.2656,644.875 Q497.4219,644.6563 497.6094,644.5469 Q497.7969,644.4375 498.0156,644.4375 Q498.3906,644.4375 498.625,644.7031 Q498.8594,644.9531 498.8594,645.5625 L498.8594,647.0156 Q498.8594,647.625 498.625,647.8906 Q498.3906,648.1563 498.0156,648.1563 Q497.6719,648.1563 497.4688,647.9531 Q497.2656,647.7656 497.1563,647.25 Q497.1094,646.8906 496.9219,646.7031 Q496.5938,646.3281 495.9844,646.1094 Q495.375,645.8906 494.75,645.8906 Q493.9844,645.8906 493.3438,646.2188 Q492.7188,646.5469 492.2188,647.2969 Q491.7344,648.0469 491.7344,649.0781 L491.7344,650.1719 Q491.7344,651.4063 492.625,652.2344 Q493.5156,653.0469 495.1094,653.0469 Q496.0469,653.0469 496.7031,652.7969 Q497.0938,652.6406 497.5156,652.2031 Q497.7813,651.9375 497.9219,651.8594 Q498.0781,651.7813 498.2813,651.7813 Q498.6094,651.7813 498.8594,652.0469 Q499.125,652.2969 499.125,652.6406 Q499.125,652.9844 498.7813,653.3906 Q498.2813,653.9688 497.4844,654.2969 Q496.4063,654.75 495.1094,654.75 Q493.5938,654.75 492.3906,654.125 Q491.4063,653.625 490.7188,652.5625 Q490.0313,651.4844 490.0313,650.2031 L490.0313,649.0469 Q490.0313,647.7188 490.6406,646.5781 Q491.2656,645.4219 492.3594,644.8125 Q493.4531,644.1875 494.6875,644.1875 Q495.4219,644.1875 496.0625,644.3594 Q496.7188,644.5156 497.2656,644.875 Z " fill="#000000"/><text fill="#000000" font-family="sans-serif" font-size="12" lengthAdjust="spacing" textLength="34" x="508.5" y="653.9102">Artista</text><line style="stroke:#A80036;stroke-width:1.5;" x1="480.5" x2="544.5" y1="665" y2="665"/><line style="stroke:#A80036;stroke-width:1.5;" x1="480.5" x2="544.5" y1="673" y2="673"/><!--MD5=[829b3e06894c037b787123c4c086ea08]
link MasterProgramacionYDiseñoSoftware to Alumno--><path codeLine="2" d="M193.0149,60.9025 C193.0149,60.9025 278.38,108.8 313.84,128.7 " fill="none" id="MasterProgramacionYDiseñoSoftware-Alumno" style="stroke:#A80036;stroke-width:1.0;"/><polygon fill="#A80036" points="325.35,135.15,319.4621,127.2549,320.9907,132.7013,315.5442,134.2298,325.35,135.15" style="stroke:#A80036;stroke-width:1.0;"/><line style="stroke:#A80036;stroke-width:1.0;" x1="320.9907" x2="314.01" y1="132.7013" y2="128.79"/><polygon fill="#A80036" points="182.55,55.03,185.825,61.4545,193.0149,60.9025,189.7399,54.4779,182.55,55.03" style="stroke:#A80036;stroke-width:1.0;"/><polygon fill="#000000" points="273.8604,96.6225,267.4105,89.6333,264.5342,94.7593,273.8604,96.6225" style="stroke:#000000;stroke-width:1.0;"/><text fill="#000000" font-family="sans-serif" font-size="13" lengthAdjust="spacing" textLength="53" x="278.5" y="99.4951">matricula</text><text fill="#000000" font-family="sans-serif" font-size="13" lengthAdjust="spacing" textLength="7" x="310.6011" y="126.9885">n</text><!--MD5=[82b12e0f57631060ae4068191c29fac0]
link MasterProgramacionYDiseñoSoftware to Unidad--><path codeLine="3" d="M147.7923,66.9808 C147.7923,66.9808 191.66,310.73 204.99,384.85 " fill="none" id="MasterProgramacionYDiseñoSoftware-Unidad" style="stroke:#A80036;stroke-width:1.0;"/><polygon fill="#A80036" points="207.35,397.95,209.6953,388.3844,206.4657,393.0288,201.8214,389.7993,207.35,397.95" style="stroke:#A80036;stroke-width:1.0;"/><line style="stroke:#A80036;stroke-width:1.0;" x1="206.4657" x2="205.05" y1="393.0288" y2="385.155"/><polygon fill="#A80036" points="145.67,55.17,142.7942,61.7828,147.7923,66.9808,150.6681,60.368,145.67,55.17" style="stroke:#A80036;stroke-width:1.0;"/><polygon fill="#000000" points="187.3855,240.0967,188.6761,230.6742,182.8912,231.7151,187.3855,240.0967" style="stroke:#000000;stroke-width:1.0;"/><text fill="#000000" font-family="sans-serif" font-size="13" lengthAdjust="spacing" textLength="28" x="195.5" y="240.4951">tiene</text><text fill="#000000" font-family="sans-serif" font-size="13" lengthAdjust="spacing" textLength="14" x="190.4928" y="387.2773">54</text><!--MD5=[70c236c608463fd158caec5ca63a7d73]
link MasterProgramacionYDiseñoSoftware to Profesor--><path codeLine="4" d="M124.7127,65.9324 C124.7127,65.9324 118.28,79.18 115.5,85 C96.98,123.84 76.31,168.68 62.47,198.94 " fill="none" id="MasterProgramacionYDiseñoSoftware-Profesor" style="stroke:#A80036;stroke-width:1.0;"/><polygon fill="#A80036" points="56.98,210.95,64.3564,204.424,59.0565,206.4016,57.0789,201.1016,56.98,210.95" style="stroke:#A80036;stroke-width:1.0;"/><line style="stroke:#A80036;stroke-width:1.0;" x1="59.0565" x2="62.38" y1="206.4016" y2="199.13"/><polygon fill="#A80036" points="130,55.16,123.7656,58.7838,124.7127,65.9324,130.9471,62.3086,130,55.16" style="stroke:#A80036;stroke-width:1.0;"/><!--MD5=[c84ebcf49f5717e3dd7500a7d6cd62c8]
link Unidad to Teoria--><path codeLine="6" d="M228.6234,456.9346 C228.6234,456.9346 241.84,483.11 247.85,495.03 " fill="none" id="Unidad-Teoria" style="stroke:#A80036;stroke-width:1.0;"/><polygon fill="#A80036" points="253.81,506.83,253.3241,496.9931,251.5564,502.3667,246.1828,500.599,253.81,506.83" style="stroke:#A80036;stroke-width:1.0;"/><line style="stroke:#A80036;stroke-width:1.0;" x1="251.5564" x2="247.95" y1="502.3667" y2="495.22"/><polygon fill="#A80036" points="223.22,446.22,222.3502,453.3785,228.6234,456.9346,229.4933,449.7762,223.22,446.22" style="stroke:#A80036;stroke-width:1.0;"/><!--MD5=[31bc95b5f3698b2f5b9674ef1a7a76c3]
link Unidad to Practica--><path codeLine="7" d="M256.4227,452.8642 C256.4227,452.8642 304.97,485.12 326.7,499.56 " fill="none" id="Unidad-Practica" style="stroke:#A80036;stroke-width:1.0;"/><polygon fill="#A80036" points="337.63,506.83,332.3502,498.5159,333.4664,504.0616,327.9207,505.1777,337.63,506.83" style="stroke:#A80036;stroke-width:1.0;"/><line style="stroke:#A80036;stroke-width:1.0;" x1="333.4664" x2="326.81" y1="504.0616" y2="499.63"/><polygon fill="#A80036" points="246.43,446.22,249.2116,452.873,256.4227,452.8642,253.6411,446.2112,246.43,446.22" style="stroke:#A80036;stroke-width:1.0;"/><!--MD5=[55eee9c442d867dd0bfed96fe5afd0e5]
link Unidad to Examen--><path codeLine="8" d="M194.6757,456.9741 C194.6757,456.9741 181.73,483.11 175.82,495.03 " fill="none" id="Unidad-Examen" style="stroke:#A80036;stroke-width:1.0;"/><polygon fill="#A80036" points="169.98,506.83,177.558,500.5392,172.1985,502.3491,170.3886,496.9896,169.98,506.83" style="stroke:#A80036;stroke-width:1.0;"/><line style="stroke:#A80036;stroke-width:1.0;" x1="172.1985" x2="175.75" y1="502.3491" y2="495.18"/><polygon fill="#A80036" points="200,446.22,193.7531,449.8223,194.6757,456.9741,200.9225,453.3718,200,446.22" style="stroke:#A80036;stroke-width:1.0;"/><!--MD5=[3739afd6ee371d18876f6d28b4c60294]
reverse link Alumno to Espectador--><path codeLine="10" d="M362.5,201.37 C362.5,229.74 362.5,265.71 362.5,288.79 " fill="none" id="Alumno-backto-Espectador" style="stroke:#A80036;stroke-width:1.0;"/><polygon fill="none" points="355.5,201.06,362.5,181.06,369.5,201.06,355.5,201.06" style="stroke:#A80036;stroke-width:1.0;"/><!--MD5=[4a9850426ad4150908dae36a4938742d]
reverse link Alumno to Critico--><path codeLine="11" d="M404.51,195.16 C432.25,223.94 463.5,266.47 463.5,312 C463.5,312 463.5,312 463.5,477 C463.5,534.89 460.43,553.45 430.5,603 C423.73,614.21 413.88,624.46 404.22,632.91 " fill="none" id="Alumno-backto-Critico" style="stroke:#A80036;stroke-width:1.0;"/><polygon fill="none" points="399.48,200.04,390.1,181.04,409.28,190.04,399.48,200.04" style="stroke:#A80036;stroke-width:1.0;"/><!--MD5=[a1d87a7d3b5764916ae9099aa6e3294b]
reverse link Alumno to Artista--><path codeLine="12" d="M419.05,170.35 C485.99,188.69 588.5,230.14 588.5,312 C588.5,312 588.5,312 588.5,532 C588.5,571.89 559.55,609.78 537.39,632.94 " fill="none" id="Alumno-backto-Artista" style="stroke:#A80036;stroke-width:1.0;"/><polygon fill="none" points="417.22,177.11,399.57,165.38,420.68,163.54,417.22,177.11" style="stroke:#A80036;stroke-width:1.0;"/><!--MD5=[aa757fc10c6eb49432294cda424a15c8]
link Alumno to Unidad--><path codeLine="14" d="M336.28,181 C310.11,205.34 270.57,246.09 247.5,289 C229.6,322.28 220.05,365.18 215.38,392.89 " fill="none" id="Alumno-to-Unidad" style="stroke:#A80036;stroke-width:1.0;stroke-dasharray:7.0,7.0;"/><polygon fill="#A80036" points="214.56,397.88,219.9503,389.6372,215.3611,392.9446,212.0537,388.3554,214.56,397.88" style="stroke:#A80036;stroke-width:1.0;"/><polygon fill="#000000" points="250.0221,317.5186,257.0573,311.1189,251.952,308.2059,250.0221,317.5186" style="stroke:#000000;stroke-width:1.0;"/><text fill="#000000" font-family="sans-serif" font-size="13" lengthAdjust="spacing" textLength="35" x="261.5" y="318.4951">asiste</text><!--MD5=[78873262d9e3cb2ab9798bf1ff7263bf]
reverse link Practica to Critico--><path codeLine="17" d="M372.5,560.14 C372.5,582.04 372.5,612.09 372.5,632.67 " fill="none" id="Practica-backto-Critico" style="stroke:#A80036;stroke-width:1.0;"/><polygon fill="#A80036" points="372.5,555.03,368.5,564.03,372.5,560.03,376.5,564.03,372.5,555.03" style="stroke:#A80036;stroke-width:1.0;"/><polygon fill="#000000" points="377.5,589.1758,374.5611,598.2209,380.4389,598.2209,377.5,589.1758" style="stroke:#000000;stroke-width:1.0;"/><text fill="#000000" font-family="sans-serif" font-size="13" lengthAdjust="spacing" textLength="35" x="386.5" y="599.4951">critica</text><!--MD5=[6b0e6349df101dc0ace72676f0436dd5]
reverse link Practica to Artista--><path codeLine="18" d="M402.41,558.49 C427.28,580.52 462.33,611.57 486.16,632.67 " fill="none" id="Practica-backto-Artista" style="stroke:#A80036;stroke-width:1.0;"/><polygon fill="#A80036" points="398.5,555.03,402.5862,563.9912,402.2433,558.3447,407.8898,558.0018,398.5,555.03" style="stroke:#A80036;stroke-width:1.0;"/><polygon fill="#000000" points="451.7571,590.8606,456.5794,599.0579,460.4767,594.6578,451.7571,590.8606" style="stroke:#000000;stroke-width:1.0;"/><text fill="#000000" font-family="sans-serif" font-size="13" lengthAdjust="spacing" textLength="38" x="464.5" y="599.4951">realiza</text><!--MD5=[6254c70970140a0cfae44d200998bb4c]
reverse link Examen to Critico--><path codeLine="20" d="M192.76,558.33 C211.87,572.43 236.4,589.6 259.5,603 C285.18,617.9 315.74,632.03 338.6,641.95 " fill="none" id="Examen-backto-Critico" style="stroke:#A80036;stroke-width:1.0;"/><polygon fill="#A80036" points="188.52,555.19,193.374,563.7596,192.5388,558.1648,198.1337,557.3295,188.52,555.19" style="stroke:#A80036;stroke-width:1.0;"/><!--MD5=[ef29ec4aa087266ce839e89efd027303]
reverse link Examen to Artista--><path codeLine="21" d="M202.12,550.23 C206.29,551.87 210.47,553.49 214.5,555 C309.66,590.63 423.85,627.8 479.19,645.47 " fill="none" id="Examen-backto-Artista" style="stroke:#A80036;stroke-width:1.0;"/><polygon fill="#A80036" points="197.24,548.28,204.1182,555.3291,201.8843,550.132,207.0815,547.8982,197.24,548.28" style="stroke:#A80036;stroke-width:1.0;"/><!--MD5=[702db9cbc5f3fa53ba6a50311db79976]
link Profesor to Unidad--><path codeLine="23" d="M43.25,259.31 C41.45,281.21 42.09,313.99 57.5,337 C83.58,375.95 133.98,398.43 170.02,410.17 " fill="none" id="Profesor-to-Unidad" style="stroke:#A80036;stroke-width:1.0;"/><polygon fill="#A80036" points="175.22,411.82,167.8573,405.2786,170.4556,410.3034,165.4307,412.9017,175.22,411.82" style="stroke:#A80036;stroke-width:1.0;"/><polygon fill="#000000" points="65.7167,317.0037,62.1477,308.1882,57.6477,311.9696,65.7167,317.0037" style="stroke:#000000;stroke-width:1.0;"/><text fill="#000000" font-family="sans-serif" font-size="13" lengthAdjust="spacing" textLength="43" x="71.5" y="318.4951">imparte</text><!--MD5=[0e45b0397fe708b10fd566db2b04fcc7]
@startuml 6

MasterProgramacionYDiseñoSoftware *- -> "n" Alumno : matricula >
MasterProgramacionYDiseñoSoftware *- -> "54" Unidad : tiene >
MasterProgramacionYDiseñoSoftware *- -> Profesor

Unidad *- -> Teoria        
Unidad *-down-> Practica
Unidad *-down-> Examen

Alumno <|- - Espectador
Alumno <|- - Critico
Alumno <|- - Artista

Alumno ..-> Unidad : asiste >


Practica <- - Critico : critica <
Practica <- - Artista : realiza <

Examen <- - Critico 
Examen <- - Artista 

Profesor - -> Unidad : imparte >
@enduml

PlantUML version 1.2022.0(Tue Jan 11 17:16:42 CET 2022)
(GPL source distribution)
Java Runtime: OpenJDK Runtime Environment
JVM: OpenJDK 64-Bit Server VM
Default Encoding: Cp1252
Language: es
Country: ES
--></g></svg>