<?xml version="1.0" encoding="UTF-8" standalone="no"?><svg xmlns="http://www.w3.org/2000/svg" xmlns:xlink="http://www.w3.org/1999/xlink" contentScriptType="application/ecmascript" contentStyleType="text/css" height="268px" preserveAspectRatio="none" style="width:1536px;height:268px;background:#FFFFFF;" version="1.1" viewBox="0 0 1536 268" width="1536px" zoomAndPan="magnify"><defs><filter height="300%" id="f1ba1qnod7ebmx" width="300%" x="-1" y="-1"><feGaussianBlur result="blurOut" stdDeviation="2.0"/><feColorMatrix in="blurOut" result="blurOut2" type="matrix" values="0 0 0 0 0 0 0 0 0 0 0 0 0 0 0 0 0 0 .4 0"/><feOffset dx="4.0" dy="4.0" in="blurOut2" result="blurOut3"/><feBlend in="SourceGraphic" in2="blurOut3" mode="normal"/></filter></defs><g><text fill="#000000" font-family="sans-serif" font-size="18" lengthAdjust="spacing" textLength="297" x="613" y="18.6855">Cuadro de las Meninas de Velazques</text><rect fill="#FEFECE" filter="url(#f1ba1qnod7ebmx)" height="35.0938" style="stroke:#A80036;stroke-width:1.5;" width="52" x="750" y="124.6406"/><text fill="#000000" font-family="sans-serif" font-size="12" lengthAdjust="spacing" textLength="38" x="757" y="139.0977">planeA</text><line style="stroke:#A80036;stroke-width:1.5;" x1="751" x2="801" y1="143.7344" y2="143.7344"/><rect fill="#FEFECE" filter="url(#f1ba1qnod7ebmx)" height="35.0938" style="stroke:#A80036;stroke-width:1.5;" width="53" x="1235.5" y="124.6406"/><text fill="#000000" font-family="sans-serif" font-size="12" lengthAdjust="spacing" textLength="39" x="1242.5" y="139.0977">planeB</text><line style="stroke:#A80036;stroke-width:1.5;" x1="1236.5" x2="1287.5" y1="143.7344" y2="143.7344"/><rect fill="#FEFECE" filter="url(#f1ba1qnod7ebmx)" height="35.0938" style="stroke:#A80036;stroke-width:1.5;" width="54" x="265" y="124.6406"/><text fill="#000000" font-family="sans-serif" font-size="12" lengthAdjust="spacing" textLength="40" x="272" y="139.0977">planeC</text><line style="stroke:#A80036;stroke-width:1.5;" x1="266" x2="318" y1="143.7344" y2="143.7344"/><rect fill="#FEFECE" filter="url(#f1ba1qnod7ebmx)" height="35.0938" style="stroke:#A80036;stroke-width:1.5;" width="32" x="7" y="219.6406"/><text fill="#000000" font-family="sans-serif" font-size="12" lengthAdjust="spacing" textLength="18" x="14" y="234.0977">me</text><line style="stroke:#A80036;stroke-width:1.5;" x1="8" x2="38" y1="238.7344" y2="238.7344"/><rect fill="#FEFECE" filter="url(#f1ba1qnod7ebmx)" height="35.0938" style="stroke:#A80036;stroke-width:1.5;" width="62" x="62" y="124.6406"/><text fill="#000000" font-family="sans-serif" font-size="12" lengthAdjust="spacing" textLength="48" x="69" y="139.0977">observer</text><line style="stroke:#A80036;stroke-width:1.5;" x1="63" x2="123" y1="143.7344" y2="143.7344"/><rect fill="#FEFECE" filter="url(#f1ba1qnod7ebmx)" height="35.0938" style="stroke:#A80036;stroke-width:1.5;" width="37" x="74.5" y="219.6406"/><text fill="#000000" font-family="sans-serif" font-size="12" lengthAdjust="spacing" textLength="23" x="81.5" y="234.0977">king</text><line style="stroke:#A80036;stroke-width:1.5;" x1="75.5" x2="110.5" y1="238.7344" y2="238.7344"/><rect fill="#FEFECE" filter="url(#f1ba1qnod7ebmx)" height="35.0938" style="stroke:#A80036;stroke-width:1.5;" width="49" x="146.5" y="219.6406"/><text fill="#000000" font-family="sans-serif" font-size="12" lengthAdjust="spacing" textLength="35" x="153.5" y="234.0977">queen</text><line style="stroke:#A80036;stroke-width:1.5;" x1="147.5" x2="194.5" y1="238.7344" y2="238.7344"/><rect fill="#FEFECE" filter="url(#f1ba1qnod7ebmx)" height="35.0938" style="stroke:#A80036;stroke-width:1.5;" width="102" x="388" y="219.6406"/><text fill="#000000" font-family="sans-serif" font-size="12" lengthAdjust="spacing" textLength="88" x="395" y="234.0977">infantaMargarita</text><line style="stroke:#A80036;stroke-width:1.5;" x1="389" x2="489" y1="238.7344" y2="238.7344"/><rect fill="#FEFECE" filter="url(#f1ba1qnod7ebmx)" height="35.0938" style="stroke:#A80036;stroke-width:1.5;" width="108" x="525" y="219.6406"/><text fill="#000000" font-family="sans-serif" font-size="12" lengthAdjust="spacing" textLength="94" x="532" y="234.0977">isabelDeVelasco</text><line style="stroke:#A80036;stroke-width:1.5;" x1="526" x2="632" y1="238.7344" y2="238.7344"/><rect fill="#FEFECE" filter="url(#f1ba1qnod7ebmx)" height="35.0938" style="stroke:#A80036;stroke-width:1.5;" width="94" x="668" y="219.6406"/><text fill="#000000" font-family="sans-serif" font-size="12" lengthAdjust="spacing" textLength="80" x="675" y="234.0977">mariaAgustina</text><line style="stroke:#A80036;stroke-width:1.5;" x1="669" x2="761" y1="238.7344" y2="238.7344"/><rect fill="#FEFECE" filter="url(#f1ba1qnod7ebmx)" height="35.0938" style="stroke:#A80036;stroke-width:1.5;" width="82" x="797" y="219.6406"/><text fill="#000000" font-family="sans-serif" font-size="12" lengthAdjust="spacing" textLength="68" x="804" y="234.0977">mariBarbola</text><line style="stroke:#A80036;stroke-width:1.5;" x1="798" x2="878" y1="238.7344" y2="238.7344"/><rect fill="#FEFECE" filter="url(#f1ba1qnod7ebmx)" height="35.0938" style="stroke:#A80036;stroke-width:1.5;" width="120" x="914" y="219.6406"/><text fill="#000000" font-family="sans-serif" font-size="12" lengthAdjust="spacing" textLength="106" x="921" y="234.0977">nicolasitoPertusato</text><line style="stroke:#A80036;stroke-width:1.5;" x1="915" x2="1033" y1="238.7344" y2="238.7344"/><rect fill="#FEFECE" filter="url(#f1ba1qnod7ebmx)" height="35.0938" style="stroke:#A80036;stroke-width:1.5;" width="104" x="1140" y="219.6406"/><text fill="#000000" font-family="sans-serif" font-size="12" lengthAdjust="spacing" textLength="90" x="1147" y="234.0977">marcelaDeUlloa</text><line style="stroke:#A80036;stroke-width:1.5;" x1="1141" x2="1243" y1="238.7344" y2="238.7344"/><rect fill="#FEFECE" filter="url(#f1ba1qnod7ebmx)" height="35.0938" style="stroke:#A80036;stroke-width:1.5;" width="108" x="1279" y="219.6406"/><text fill="#000000" font-family="sans-serif" font-size="12" lengthAdjust="spacing" textLength="94" x="1286" y="234.0977">diegoRuizAzcona</text><line style="stroke:#A80036;stroke-width:1.5;" x1="1280" x2="1386" y1="238.7344" y2="238.7344"/><rect fill="#FEFECE" filter="url(#f1ba1qnod7ebmx)" height="35.0938" style="stroke:#A80036;stroke-width:1.5;" width="122" x="231" y="219.6406"/><text fill="#000000" font-family="sans-serif" font-size="12" lengthAdjust="spacing" textLength="108" x="238" y="234.0977">joseNietoVelazquez</text><line style="stroke:#A80036;stroke-width:1.5;" x1="232" x2="352" y1="238.7344" y2="238.7344"/><rect fill="#FEFECE" filter="url(#f1ba1qnod7ebmx)" height="35.0938" style="stroke:#A80036;stroke-width:1.5;" width="100" x="1422" y="219.6406"/><text fill="#000000" font-family="sans-serif" font-size="12" lengthAdjust="spacing" textLength="86" x="1429" y="234.0977">diegoVelazquez</text><line style="stroke:#A80036;stroke-width:1.5;" x1="1423" x2="1521" y1="238.7344" y2="238.7344"/><rect fill="#FEFECE" filter="url(#f1ba1qnod7ebmx)" height="35.0938" style="stroke:#A80036;stroke-width:1.5;" width="35" x="1069.5" y="219.6406"/><text fill="#000000" font-family="sans-serif" font-size="12" lengthAdjust="spacing" textLength="21" x="1076.5" y="234.0977">dog</text><line style="stroke:#A80036;stroke-width:1.5;" x1="1070.5" x2="1103.5" y1="238.7344" y2="238.7344"/><rect fill="#FEFECE" filter="url(#f1ba1qnod7ebmx)" height="35.0938" style="stroke:#A80036;stroke-width:1.5;" width="63" x="744.5" y="29.6406"/><text fill="#000000" font-family="sans-serif" font-size="12" lengthAdjust="spacing" textLength="49" x="751.5" y="44.0977">meninas</text><line style="stroke:#A80036;stroke-width:1.5;" x1="745.5" x2="806.5" y1="48.7344" y2="48.7344"/><!--MD5=[5c8e5725a5ac63c0fcb07013878294e7]
link observer to me--><path codeLine="24" d="M80.49,159.7706 C68.81,175.2806 51.35,198.4706 38.74,215.2306 " fill="none" id="observer-to-me" style="stroke:#A80036;stroke-width:1.0;"/><polygon fill="#A80036" points="35.64,219.3406,44.24,214.5406,38.64,215.3406,37.84,209.7406,35.64,219.3406" style="stroke:#A80036;stroke-width:1.0;"/><!--MD5=[8977ec1f7896abe0388e813f5627cb0a]
link observer to king--><path codeLine="25" d="M93,171.7706 C93,171.7706 93,195.5906 93,206.2906 " fill="none" id="observer-king" style="stroke:#A80036;stroke-width:1.0;"/><polygon fill="#A80036" points="93,219.3406,97,210.3406,93,214.3406,89,210.3406,93,219.3406" style="stroke:#A80036;stroke-width:1.0;"/><line style="stroke:#A80036;stroke-width:1.0;" x1="93" x2="93" y1="214.3406" y2="206.3406"/><polygon fill="#FFFFFF" points="93,159.7706,89,165.7706,93,171.7706,97,165.7706,93,159.7706" style="stroke:#A80036;stroke-width:1.0;"/><!--MD5=[491c4051307f8ac7f4593b2028186914]
link observer to queen--><path codeLine="26" d="M114.6481,168.9676 C114.6481,168.9676 138.1,196.9106 148.42,209.2206 " fill="none" id="observer-queen" style="stroke:#A80036;stroke-width:1.0;"/><polygon fill="#A80036" points="156.91,219.3406,154.1946,209.8735,153.6983,215.5085,148.0632,215.0122,156.91,219.3406" style="stroke:#A80036;stroke-width:1.0;"/><line style="stroke:#A80036;stroke-width:1.0;" x1="153.6983" x2="148.56" y1="215.5085" y2="209.3856"/><polygon fill="#FFFFFF" points="106.94,159.7706,107.7284,166.9385,114.6481,168.9676,113.8597,161.7998,106.94,159.7706" style="stroke:#A80036;stroke-width:1.0;"/><!--MD5=[99968a3b3997beff4b2818255c8cafa1]
link planeA to infantaMargarita--><path codeLine="27" d="M738.2757,153.5649 C738.2757,153.5649 572.07,199.4206 503.04,218.4706 " fill="none" id="planeA-infantaMargarita" style="stroke:#A80036;stroke-width:1.0;"/><polygon fill="#A80036" points="490.2,222.0106,499.9398,223.4725,495.0199,220.6806,497.8118,215.7607,490.2,222.0106" style="stroke:#A80036;stroke-width:1.0;"/><line style="stroke:#A80036;stroke-width:1.0;" x1="495.0199" x2="502.73" y1="220.6806" y2="218.5556"/><polygon fill="#FFFFFF" points="749.84,150.3606,742.9898,148.108,738.2757,153.5649,745.1259,155.8175,749.84,150.3606" style="stroke:#A80036;stroke-width:1.0;"/><!--MD5=[4b5894973924561b57df9ece49556d01]
reverse link planeA to mariaAgustina--><path codeLine="28" d="M757.73,170.9906 C747.41,186.7306 734.84,205.8906 726.02,219.3406 " fill="none" id="planeA-backto-mariaAgustina" style="stroke:#A80036;stroke-width:1.0;"/><polygon fill="#A80036" points="765.09,159.7706,758.4549,162.5948,758.5099,169.8057,765.1449,166.9815,765.09,159.7706" style="stroke:#A80036;stroke-width:1.0;"/><!--MD5=[b906cf7bba12c446ab094dc93e58a774]
reverse link planeA to isabelDeVelasco--><path codeLine="29" d="M737.97,161.0906 C702.21,177.9806 649.1,203.0506 614.26,219.4906 " fill="none" id="planeA-backto-isabelDeVelasco" style="stroke:#A80036;stroke-width:1.0;"/><polygon fill="#A80036" points="749.84,155.4906,742.7061,154.4382,738.9909,160.6186,746.1248,161.671,749.84,155.4906" style="stroke:#A80036;stroke-width:1.0;"/><!--MD5=[d2738227c62fcf97509729db036f2ab0]
reverse link planeA to mariBarbola--><path codeLine="30" d="M794.56,170.9906 C805.06,186.7306 817.83,205.8906 826.8,219.3406 " fill="none" id="planeA-backto-mariBarbola" style="stroke:#A80036;stroke-width:1.0;"/><polygon fill="#A80036" points="787.08,159.7706,787.0822,166.9817,793.7394,169.7532,793.7372,162.5421,787.08,159.7706" style="stroke:#A80036;stroke-width:1.0;"/><!--MD5=[da80e7cfc4445e2b7aee65cd5a74be34]
reverse link planeA to nicolasitoPertusato--><path codeLine="31" d="M814.22,161.0906 C850.17,177.9806 903.55,203.0506 938.56,219.4906 " fill="none" id="planeA-backto-nicolasitoPertusato" style="stroke:#A80036;stroke-width:1.0;"/><polygon fill="#A80036" points="802.29,155.4906,806.0237,161.6599,813.1544,160.5862,809.4207,154.4169,802.29,155.4906" style="stroke:#A80036;stroke-width:1.0;"/><!--MD5=[e1de21ade65beda6added7db8da31d0a]
reverse link planeA to dog--><path codeLine="32" d="M815.21,151.9706 C869.12,164.5906 968.79,189.5806 1051,219.6406 C1057.07,221.8606 1063.54,224.6706 1069.29,227.3506 " fill="none" id="planeA-backto-dog" style="stroke:#A80036;stroke-width:1.0;"/><polygon fill="#A80036" points="802.21,148.9706,807.1552,154.219,813.9018,151.6728,808.9566,146.4244,802.21,148.9706" style="stroke:#A80036;stroke-width:1.0;"/><!--MD5=[e558d8ffd5acdd2d5a11c735dd2c534b]
reverse link planeB to diegoVelazquez--><path codeLine="34" d="M1300.74,160.2906 C1338.94,177.2106 1396.94,202.9006 1434.65,219.6006 " fill="none" id="planeB-backto-diegoVelazquez" style="stroke:#A80036;stroke-width:1.0;"/><polygon fill="#A80036" points="1288.6,154.9206,1292.4631,161.0097,1299.5695,159.7857,1295.7065,153.6967,1288.6,154.9206" style="stroke:#A80036;stroke-width:1.0;"/><!--MD5=[6e2f17bb91080d68463c9784f5b31820]
reverse link planeB to marcelaDeUlloa--><path codeLine="35" d="M1241.39,170.5206 C1229.47,186.3506 1214.87,205.7606 1204.64,219.3406 " fill="none" id="planeB-backto-marcelaDeUlloa" style="stroke:#A80036;stroke-width:1.0;"/><polygon fill="#A80036" points="1249.49,159.7706,1242.6863,162.1602,1242.2752,169.3595,1249.0789,166.97,1249.49,159.7706" style="stroke:#A80036;stroke-width:1.0;"/><!--MD5=[a63a096a39cc307e692216f6588cb5ed]
reverse link planeB to diegoRuizAzcona--><path codeLine="36" d="M1282.91,170.5206 C1294.99,186.3506 1309.8,205.7606 1320.18,219.3406 " fill="none" id="planeB-backto-diegoRuizAzcona" style="stroke:#A80036;stroke-width:1.0;"/><polygon fill="#A80036" points="1274.69,159.7706,1275.1517,166.9669,1281.9721,169.3085,1281.5103,162.1122,1274.69,159.7706" style="stroke:#A80036;stroke-width:1.0;"/><!--MD5=[d46080a116928e516f8a1c2a8b547d5d]
link planeC to king--><path codeLine="39" d="M253.8832,160.9711 C253.8832,160.9711 158.49,205.5306 123.77,221.7606 " fill="none" id="planeC-king" style="stroke:#A80036;stroke-width:1.0;"/><polygon fill="#A80036" points="111.62,227.4406,121.4672,227.2594,116.1509,225.3262,118.0841,220.0099,111.62,227.4406" style="stroke:#A80036;stroke-width:1.0;"/><line style="stroke:#A80036;stroke-width:1.0;" x1="116.1509" x2="123.395" y1="225.3262" y2="221.9356"/><polygon fill="#FFFFFF" points="264.75,155.8806,257.6198,154.8036,253.8832,160.9711,261.0134,162.0481,264.75,155.8806" style="stroke:#A80036;stroke-width:1.0;"/><!--MD5=[42e2bec99dedc27cc2ab752463340d93]
link planeC to queen--><path codeLine="40" d="M260.8497,167.0757 C260.8497,167.0757 220.73,197.9206 203.18,211.4106 " fill="none" id="planeC-queen" style="stroke:#A80036;stroke-width:1.0;"/><polygon fill="#A80036" points="192.85,219.3406,202.4252,217.0353,196.8168,216.2969,197.5552,210.6884,192.85,219.3406" style="stroke:#A80036;stroke-width:1.0;"/><line style="stroke:#A80036;stroke-width:1.0;" x1="196.8168" x2="203.16" y1="216.2969" y2="211.4206"/><polygon fill="#FFFFFF" points="270.37,159.7706,263.1748,160.2497,260.8497,167.0757,268.0449,166.5966,270.37,159.7706" style="stroke:#A80036;stroke-width:1.0;"/><!--MD5=[a022c913da860c8d7b3071039d20d5eb]
link planeC to infantaMargarita--><path codeLine="41" d="M328.418,166.1909 C328.418,166.1909 379.19,198.3006 401.2,212.2206 " fill="none" id="planeC-infantaMargarita" style="stroke:#A80036;stroke-width:1.0;"/><polygon fill="#A80036" points="412.45,219.3406,406.9866,211.146,408.2258,216.6655,402.7064,217.9047,412.45,219.3406" style="stroke:#A80036;stroke-width:1.0;"/><line style="stroke:#A80036;stroke-width:1.0;" x1="408.2258" x2="401.465" y1="216.6655" y2="212.3956"/><polygon fill="#FFFFFF" points="318.28,159.7706,321.2089,166.3601,328.418,166.1909,325.4891,159.6014,318.28,159.7706" style="stroke:#A80036;stroke-width:1.0;"/><!--MD5=[79eee236519a107785d63d9c9e081e15]
reverse link planeC to joseNietoVelazquez--><path codeLine="42" d="M292,172.8506 C292,188.2206 292,206.4206 292,219.3406 " fill="none" id="planeC-backto-joseNietoVelazquez" style="stroke:#A80036;stroke-width:1.0;"/><polygon fill="#A80036" points="292,159.7706,288,165.7706,292,171.7706,296,165.7706,292,159.7706" style="stroke:#A80036;stroke-width:1.0;"/><!--MD5=[1e5c41e8a3a691aad0a2a5daa90d74fb]
reverse link meninas to planeA--><path codeLine="45" d="M776,77.8506 C776,93.2206 776,111.4206 776,124.3406 " fill="none" id="meninas-backto-planeA" style="stroke:#A80036;stroke-width:1.0;"/><polygon fill="#A80036" points="776,64.7706,772,70.7706,776,76.7706,780,70.7706,776,64.7706" style="stroke:#A80036;stroke-width:1.0;"/><!--MD5=[773806a643960729251a72de1bf0dc9d]
reverse link meninas to planeB--><path codeLine="46" d="M820.56,56.6706 C919.69,75.6406 1155.98,120.8506 1235.42,136.0506 " fill="none" id="meninas-backto-planeB" style="stroke:#A80036;stroke-width:1.0;"/><polygon fill="#A80036" points="807.51,54.1706,812.6517,59.2266,819.2963,56.4251,814.1546,51.3691,807.51,54.1706" style="stroke:#A80036;stroke-width:1.0;"/><!--MD5=[9061bf4ee268a1951f33aa4a15af3e61]
reverse link meninas to planeC--><path codeLine="47" d="M731.26,56.7406 C632.66,75.6806 399.1,120.5606 319.29,135.9006 " fill="none" id="meninas-backto-planeC" style="stroke:#A80036;stroke-width:1.0;"/><polygon fill="#A80036" points="744.24,54.2406,737.5918,51.4476,732.4566,56.5102,739.1048,59.3032,744.24,54.2406" style="stroke:#A80036;stroke-width:1.0;"/><!--MD5=[8c374340773789652df3b91a805d394f]
@startuml 2
title Cuadro de las Meninas de Velazques

object planeA
object planeB
object planeC

object me
object observer
object king
object queen
object infantaMargarita
object isabelDeVelasco
object mariaAgustina

object mariBarbola
object nicolasitoPertusato
object marcelaDeUlloa
object diegoRuizAzcona
object joseNietoVelazquez
object diegoVelazquez
object dog


observer - ->me
observer o- -> king
observer o- -> queen
planeA o- -> infantaMargarita
planeA *- - mariaAgustina
planeA *- - isabelDeVelasco
planeA *- - mariBarbola
planeA *- - nicolasitoPertusato
planeA *- - dog

planeB *- - diegoVelazquez
planeB *- - marcelaDeUlloa
planeB *- - diegoRuizAzcona


planeC o- -> king
planeC o- -> queen
planeC o- ->infantaMargarita
planeC *- - joseNietoVelazquez

object meninas
meninas *- - planeA
meninas *- - planeB
meninas *- - planeC

@enduml

PlantUML version 1.2022.0(Tue Jan 11 17:16:42 CET 2022)
(GPL source distribution)
Java Runtime: OpenJDK Runtime Environment
JVM: OpenJDK 64-Bit Server VM
Default Encoding: Cp1252
Language: es
Country: ES
--></g></svg>