<?xml version="1.0" encoding="UTF-8" standalone="no"?><svg xmlns="http://www.w3.org/2000/svg" xmlns:xlink="http://www.w3.org/1999/xlink" contentScriptType="application/ecmascript" contentStyleType="text/css" height="512px" preserveAspectRatio="none" style="width:490px;height:512px;background:#FFFFFF;" version="1.1" viewBox="0 0 490 512" width="490px" zoomAndPan="magnify"><defs><filter height="300%" id="fwqkjbfpkuuco" width="300%" x="-1" y="-1"><feGaussianBlur result="blurOut" stdDeviation="2.0"/><feColorMatrix in="blurOut" result="blurOut2" type="matrix" values="0 0 0 0 0 0 0 0 0 0 0 0 0 0 0 0 0 0 .4 0"/><feOffset dx="4.0" dy="4.0" in="blurOut2" result="blurOut3"/><feBlend in="SourceGraphic" in2="blurOut3" mode="normal"/></filter></defs><g><rect fill="#FFFFFF" filter="url(#fwqkjbfpkuuco)" height="212.4609" style="stroke:#A80036;stroke-width:1.0;" width="10" x="238" y="166.3125"/><rect fill="#FFFFFF" filter="url(#fwqkjbfpkuuco)" height="30.3516" style="stroke:#A80036;stroke-width:1.0;" width="10" x="303" y="196.6641"/><rect fill="#FFFFFF" filter="url(#fwqkjbfpkuuco)" height="30.3516" style="stroke:#A80036;stroke-width:1.0;" width="10" x="380" y="257.3672"/><rect fill="#FFFFFF" filter="url(#fwqkjbfpkuuco)" height="30.3516" style="stroke:#A80036;stroke-width:1.0;" width="10" x="449" y="318.0703"/><line style="stroke:#A80036;stroke-width:1.0;stroke-dasharray:5.0,5.0;" x1="32" x2="32" y1="89.6094" y2="427.125"/><line style="stroke:#A80036;stroke-width:1.0;stroke-dasharray:5.0,5.0;" x1="114" x2="114" y1="89.6094" y2="427.125"/><line style="stroke:#A80036;stroke-width:1.0;stroke-dasharray:5.0,5.0;" x1="181" x2="181" y1="89.6094" y2="427.125"/><line style="stroke:#A80036;stroke-width:1.0;stroke-dasharray:5.0,5.0;" x1="243" x2="243" y1="89.6094" y2="427.125"/><line style="stroke:#A80036;stroke-width:1.0;stroke-dasharray:5.0,5.0;" x1="308" x2="308" y1="89.6094" y2="427.125"/><line style="stroke:#A80036;stroke-width:1.0;stroke-dasharray:5.0,5.0;" x1="385" x2="385" y1="89.6094" y2="427.125"/><line style="stroke:#A80036;stroke-width:1.0;stroke-dasharray:5.0,5.0;" x1="454" x2="454" y1="89.6094" y2="427.125"/><text fill="#000000" font-family="sans-serif" font-size="14" lengthAdjust="spacing" textLength="49" x="5" y="86.5332">Student</text><ellipse cx="32.5" cy="15" fill="#FF0000" filter="url(#fwqkjbfpkuuco)" rx="8" ry="8" style="stroke:#A80036;stroke-width:2.0;"/><path d="M32.5,23 L32.5,50 M19.5,31 L45.5,31 M32.5,50 L19.5,65 M32.5,50 L45.5,65 " fill="none" filter="url(#fwqkjbfpkuuco)" style="stroke:#A80036;stroke-width:2.0;"/><text fill="#000000" font-family="sans-serif" font-size="14" lengthAdjust="spacing" textLength="49" x="5" y="440.6582">Student</text><ellipse cx="32.5" cy="453.7344" fill="#FF0000" filter="url(#fwqkjbfpkuuco)" rx="8" ry="8" style="stroke:#A80036;stroke-width:2.0;"/><path d="M32.5,461.7344 L32.5,488.7344 M19.5,469.7344 L45.5,469.7344 M32.5,488.7344 L19.5,503.7344 M32.5,488.7344 L45.5,503.7344 " fill="none" filter="url(#fwqkjbfpkuuco)" style="stroke:#A80036;stroke-width:2.0;"/><rect fill="#FEFECE" filter="url(#fwqkjbfpkuuco)" height="31.6094" style="stroke:#A80036;stroke-width:1.5;" width="49" x="88" y="53"/><text fill="#000000" font-family="sans-serif" font-size="14" lengthAdjust="spacing" textLength="35" x="95" y="74.5332">Class</text><rect fill="#FEFECE" filter="url(#fwqkjbfpkuuco)" height="31.6094" style="stroke:#A80036;stroke-width:1.5;" width="49" x="88" y="426.125"/><text fill="#000000" font-family="sans-serif" font-size="14" lengthAdjust="spacing" textLength="35" x="95" y="447.6582">Class</text><rect fill="#FEFECE" filter="url(#fwqkjbfpkuuco)" height="31.6094" style="stroke:#A80036;stroke-width:1.5;" width="57" x="151" y="53"/><text fill="#000000" font-family="sans-serif" font-size="14" lengthAdjust="spacing" textLength="43" x="158" y="74.5332">Master</text><rect fill="#FEFECE" filter="url(#fwqkjbfpkuuco)" height="31.6094" style="stroke:#A80036;stroke-width:1.5;" width="57" x="151" y="426.125"/><text fill="#000000" font-family="sans-serif" font-size="14" lengthAdjust="spacing" textLength="43" x="158" y="447.6582">Master</text><rect fill="#FEFECE" filter="url(#fwqkjbfpkuuco)" height="31.6094" style="stroke:#A80036;stroke-width:1.5;" width="38" x="222" y="53"/><text fill="#000000" font-family="sans-serif" font-size="14" lengthAdjust="spacing" textLength="24" x="229" y="74.5332">Unit</text><rect fill="#FEFECE" filter="url(#fwqkjbfpkuuco)" height="31.6094" style="stroke:#A80036;stroke-width:1.5;" width="38" x="222" y="426.125"/><text fill="#000000" font-family="sans-serif" font-size="14" lengthAdjust="spacing" textLength="24" x="229" y="447.6582">Unit</text><rect fill="#FEFECE" filter="url(#fwqkjbfpkuuco)" height="31.6094" style="stroke:#A80036;stroke-width:1.5;" width="64" x="274" y="53"/><text fill="#000000" font-family="sans-serif" font-size="14" lengthAdjust="spacing" textLength="50" x="281" y="74.5332">Session</text><rect fill="#FEFECE" filter="url(#fwqkjbfpkuuco)" height="31.6094" style="stroke:#A80036;stroke-width:1.5;" width="64" x="274" y="426.125"/><text fill="#000000" font-family="sans-serif" font-size="14" lengthAdjust="spacing" textLength="50" x="281" y="447.6582">Session</text><rect fill="#FEFECE" filter="url(#fwqkjbfpkuuco)" height="31.6094" style="stroke:#A80036;stroke-width:1.5;" width="62" x="352" y="53"/><text fill="#000000" font-family="sans-serif" font-size="14" lengthAdjust="spacing" textLength="48" x="359" y="74.5332">Proyect</text><rect fill="#FEFECE" filter="url(#fwqkjbfpkuuco)" height="31.6094" style="stroke:#A80036;stroke-width:1.5;" width="62" x="352" y="426.125"/><text fill="#000000" font-family="sans-serif" font-size="14" lengthAdjust="spacing" textLength="48" x="359" y="447.6582">Proyect</text><rect fill="#FEFECE" filter="url(#fwqkjbfpkuuco)" height="31.6094" style="stroke:#A80036;stroke-width:1.5;" width="48" x="428" y="53"/><text fill="#000000" font-family="sans-serif" font-size="14" lengthAdjust="spacing" textLength="34" x="435" y="74.5332">Exam</text><rect fill="#FEFECE" filter="url(#fwqkjbfpkuuco)" height="31.6094" style="stroke:#A80036;stroke-width:1.5;" width="48" x="428" y="426.125"/><text fill="#000000" font-family="sans-serif" font-size="14" lengthAdjust="spacing" textLength="34" x="435" y="447.6582">Exam</text><rect fill="#FFFFFF" filter="url(#fwqkjbfpkuuco)" height="212.4609" style="stroke:#A80036;stroke-width:1.0;" width="10" x="238" y="166.3125"/><rect fill="#FFFFFF" filter="url(#fwqkjbfpkuuco)" height="30.3516" style="stroke:#A80036;stroke-width:1.0;" width="10" x="303" y="196.6641"/><rect fill="#FFFFFF" filter="url(#fwqkjbfpkuuco)" height="30.3516" style="stroke:#A80036;stroke-width:1.0;" width="10" x="380" y="257.3672"/><rect fill="#FFFFFF" filter="url(#fwqkjbfpkuuco)" height="30.3516" style="stroke:#A80036;stroke-width:1.0;" width="10" x="449" y="318.0703"/><polygon fill="#A80036" points="102.5,117.9609,112.5,121.9609,102.5,125.9609,106.5,121.9609" style="stroke:#A80036;stroke-width:1.0;"/><line style="stroke:#A80036;stroke-width:1.0;" x1="32.5" x2="108.5" y1="121.9609" y2="121.9609"/><text fill="#000000" font-family="sans-serif" font-size="13" lengthAdjust="spacing" textLength="58" x="39.5" y="117.1045">Subscribe</text><polygon fill="#A80036" points="169.5,131.9609,179.5,135.9609,169.5,139.9609,173.5,135.9609" style="stroke:#A80036;stroke-width:1.0;"/><line style="stroke:#A80036;stroke-width:1.0;" x1="114.5" x2="175.5" y1="135.9609" y2="135.9609"/><polygon fill="#A80036" points="226,162.3125,236,166.3125,226,170.3125,230,166.3125" style="stroke:#A80036;stroke-width:1.0;"/><line style="stroke:#A80036;stroke-width:1.0;" x1="181.5" x2="232" y1="166.3125" y2="166.3125"/><text fill="#000000" font-family="sans-serif" font-size="13" lengthAdjust="spacing" textLength="17" x="188.5" y="161.4561">Init</text><polygon fill="#A80036" points="291,192.6641,301,196.6641,291,200.6641,295,196.6641" style="stroke:#A80036;stroke-width:1.0;"/><line style="stroke:#A80036;stroke-width:1.0;" x1="248" x2="297" y1="196.6641" y2="196.6641"/><text fill="#000000" font-family="sans-serif" font-size="13" lengthAdjust="spacing" textLength="28" x="255" y="191.8076">Start</text><polygon fill="#A80036" points="259,223.0156,249,227.0156,259,231.0156,255,227.0156" style="stroke:#A80036;stroke-width:1.0;"/><line style="stroke:#A80036;stroke-width:1.0;" x1="253" x2="307" y1="227.0156" y2="227.0156"/><text fill="#000000" font-family="sans-serif" font-size="13" lengthAdjust="spacing" textLength="23" x="265" y="222.1592">End</text><polygon fill="#A80036" points="368,253.3672,378,257.3672,368,261.3672,372,257.3672" style="stroke:#A80036;stroke-width:1.0;"/><line style="stroke:#A80036;stroke-width:1.0;" x1="248" x2="374" y1="257.3672" y2="257.3672"/><text fill="#000000" font-family="sans-serif" font-size="13" lengthAdjust="spacing" textLength="17" x="255" y="252.5107">Init</text><polygon fill="#A80036" points="259,283.7188,249,287.7188,259,291.7188,255,287.7188" style="stroke:#A80036;stroke-width:1.0;"/><line style="stroke:#A80036;stroke-width:1.0;" x1="253" x2="384" y1="287.7188" y2="287.7188"/><text fill="#000000" font-family="sans-serif" font-size="13" lengthAdjust="spacing" textLength="21" x="265" y="282.8623">end</text><polygon fill="#A80036" points="437,314.0703,447,318.0703,437,322.0703,441,318.0703" style="stroke:#A80036;stroke-width:1.0;"/><line style="stroke:#A80036;stroke-width:1.0;" x1="248" x2="443" y1="318.0703" y2="318.0703"/><text fill="#000000" font-family="sans-serif" font-size="13" lengthAdjust="spacing" textLength="17" x="255" y="313.2139">Init</text><polygon fill="#A80036" points="259,344.4219,249,348.4219,259,352.4219,255,348.4219" style="stroke:#A80036;stroke-width:1.0;"/><line style="stroke:#A80036;stroke-width:1.0;" x1="253" x2="453" y1="348.4219" y2="348.4219"/><text fill="#000000" font-family="sans-serif" font-size="13" lengthAdjust="spacing" textLength="23" x="265" y="343.5654">End</text><polygon fill="#A80036" points="192.5,374.7734,182.5,378.7734,192.5,382.7734,188.5,378.7734" style="stroke:#A80036;stroke-width:1.0;"/><line style="stroke:#A80036;stroke-width:1.0;" x1="186.5" x2="242" y1="378.7734" y2="378.7734"/><text fill="#000000" font-family="sans-serif" font-size="13" lengthAdjust="spacing" textLength="23" x="198.5" y="373.917">End</text><polygon fill="#A80036" points="43.5,405.125,33.5,409.125,43.5,413.125,39.5,409.125" style="stroke:#A80036;stroke-width:1.0;"/><line style="stroke:#A80036;stroke-width:1.0;" x1="37.5" x2="180.5" y1="409.125" y2="409.125"/><text fill="#000000" font-family="sans-serif" font-size="13" lengthAdjust="spacing" textLength="50" x="49.5" y="404.2686">End Unit</text><!--MD5=[7b48ecb25d7a7220650f865049b6901c]
@startuml 5
actor Student #red

Student -> Class: Subscribe

Class -> Master:

Master -> Unit: Init
activate Unit

Unit -> Session: Start
activate Session

Session -> Unit: End
deactivate Session

Unit -> Proyect: Init
activate Proyect

Proyect -> Unit: end
deactivate Proyect

Unit -> Exam: Init
activate Exam

Exam -> Unit: End
deactivate Exam

Unit -> Master: End
deactivate Unit

Master -> Student: End Unit
deactivate Unit

@enduml

PlantUML version 1.2022.0(Tue Jan 11 17:16:42 CET 2022)
(GPL source distribution)
Java Runtime: OpenJDK Runtime Environment
JVM: OpenJDK 64-Bit Server VM
Default Encoding: Cp1252
Language: es
Country: ES
--></g></svg>